# Blender v2.90.0 OBJ File: 'piedras3.blend'
# www.blender.org
mtllib modeloPiedras1.mtl
v -0.754730 -0.654189 -0.000584
v -0.724490 -0.309944 0.284336
v -0.744162 -0.066954 0.322514
v -0.793642 -0.407874 0.094109
v -0.839218 -0.066954 0.073545
v -0.096551 -0.587267 0.591528
v -0.417268 -0.297489 0.605911
v -0.459076 -0.066954 0.645682
v -0.044628 -0.234716 0.889152
v -0.083111 -0.066954 0.911505
v -0.178992 -0.374506 0.707122
v -0.245716 -0.066954 0.808286
v -0.449658 -0.631280 0.310265
v -0.458737 -0.921235 -0.014092
v -0.562600 -0.751138 0.101065
v -0.092667 -0.899040 0.261938
v -0.203012 -0.717677 0.394505
v -0.200655 -0.940797 0.086004
v -0.309473 -0.848086 0.202714
v -0.541866 -0.412120 0.405703
v -0.621680 -0.066954 0.485118
v -0.666464 -0.526751 0.216222
v -0.313357 -0.514295 0.527071
v -0.726290 0.184514 0.303115
v -0.743279 0.276693 0.080920
v -0.451333 0.258255 0.646221
v -0.406945 0.488661 0.606631
v -0.093128 0.258255 0.917551
v -0.057983 0.445093 0.897214
v -0.255732 0.258255 0.808826
v -0.192378 0.575280 0.719018
v -0.109966 0.806655 0.614600
v -0.621043 0.279052 0.406412
v -0.466740 0.591624 0.407874
v -0.678421 0.406777 0.080920
v -0.589159 0.550943 0.080920
v -0.326772 0.705467 0.522357
v -0.396226 0.791287 0.305551
v -0.413665 0.810241 0.073545
v -0.189197 0.907374 0.392765
v -0.051622 1.081717 0.263174
v -0.222462 0.972845 0.073545
v -0.059858 1.087606 0.073545
v -0.740389 -0.913770 -0.316705
v -0.818780 -0.744504 -0.225647
v -0.768603 -0.928791 -0.576873
v -0.916904 -0.717372 -0.576873
v -0.951152 -0.406050 -0.284185
v -0.885775 -0.066954 -0.251664
v -0.973316 -0.406050 -0.544352
v -0.816755 -0.045852 -0.594251
v -0.742980 -0.911269 -0.819972
v -0.819999 -0.737316 -0.917858
v -0.754031 -0.642209 -1.128534
v -0.881505 -0.392163 -0.902082
v -0.757665 -0.153620 -0.902082
v -0.749040 -0.392163 -1.124244
v -0.703254 -0.217679 -1.080250
v -0.550381 -0.954932 -0.225647
v -0.675543 -0.870995 -0.099899
v -0.525243 -0.996227 -0.576873
v -0.200034 -1.013637 -0.251664
v -0.200034 -0.992596 -0.576873
v -0.665821 0.076620 -0.714239
v -0.525243 -0.933476 -0.862546
v -0.525243 -0.846332 -1.025151
v -0.525243 -0.683727 -1.157172
v -0.200034 -0.920664 -0.817227
v -0.182502 -0.735554 -0.984200
v -0.279218 -0.639272 -1.124154
v -0.544548 -0.009572 -0.903741
v -0.525243 -0.392163 -1.201924
v -0.525243 -0.184209 -1.109438
v -0.082939 -0.392163 -1.030272
v -0.188931 -0.070323 -0.984630
v -0.245543 -0.392163 -1.142367
v -0.289932 -0.180972 -1.108793
v -0.762206 0.219164 -0.251664
v -0.733049 0.155863 -0.497433
v -0.654119 0.381768 -0.251664
v -0.486408 0.596531 -0.260427
v -0.547403 0.268443 -0.600652
v -0.428986 0.496839 -0.487066
v -0.331289 0.713645 -0.374672
v -0.200034 0.379466 -0.706501
v -0.213745 0.596531 -0.549808
v -0.397086 0.786414 -0.157866
v -0.192215 0.907781 -0.244764
v -0.053140 1.082610 -0.114856
v -0.114483 0.812343 -0.467332
v -0.449015 0.164217 -0.796444
v -0.200034 0.216861 -0.820673
v 0.125175 -0.614030 0.627358
v 0.450384 -0.610096 0.641668
v 0.125175 -0.271217 0.913803
v 0.125175 -0.066954 0.977285
v 0.125175 -0.433821 0.789963
v 0.450384 -0.301937 0.939134
v 0.450384 -0.066954 1.023630
v 0.450384 -0.464541 0.804273
v 0.125175 -0.908681 0.279826
v 0.125175 -0.776635 0.442431
v 0.125175 -0.954839 0.073545
v 0.325797 -0.899186 0.268596
v 0.440674 -0.746133 0.385701
v 0.333449 -0.909757 0.073545
v 0.501575 -0.701869 0.079331
v 0.583212 -0.483581 -0.025215
v 0.646853 -0.582022 0.610608
v 0.676019 -0.275676 0.922926
v 0.727515 -0.066954 0.957850
v 0.722082 -0.387313 0.720991
v 0.885649 -0.034470 0.731974
v 0.938204 0.095588 0.628912
v 0.653277 -0.596482 0.398754
v 0.632843 -0.583132 0.191591
v 0.760594 -0.392163 0.398754
v 0.878582 -0.034470 0.431236
v 0.667696 -0.381972 0.079331
v 0.759143 -0.066954 0.073545
v 0.938204 0.095588 0.561293
v 0.125175 0.258255 0.990870
v 0.125175 0.510528 0.927387
v 0.125175 0.673133 0.837884
v 0.450384 0.258255 1.042425
v 0.436450 0.605539 0.943657
v 0.436450 0.735623 0.878454
v 0.125175 0.868152 0.675279
v 0.421909 0.903140 0.717201
v 0.125175 1.030756 0.494624
v 0.125175 1.117341 0.332019
v 0.125175 1.169289 0.073545
v 0.430148 1.064638 0.551932
v 0.430148 1.128302 0.421849
v 0.450384 1.188838 0.073545
v 0.740956 0.258255 0.969107
v 0.693942 0.524932 0.937936
v 0.907232 0.279011 0.731974
v 0.769023 0.613387 0.754220
v 0.938204 0.184444 0.628912
v 0.689116 0.849617 0.665989
v 0.908102 0.279011 0.431236
v 0.866945 0.583464 0.398754
v 0.809684 0.258255 0.073545
v 0.799011 0.583464 0.073545
v 0.938204 0.184444 0.561293
v 0.719699 0.938281 0.426409
v 0.644518 1.115340 0.336444
v 0.720338 0.908673 0.073545
v 0.638351 1.107155 0.073545
v 0.140077 -0.944524 -0.253422
v 0.258414 -0.839798 -0.362996
v 0.031644 -0.925160 -0.576873
v 0.189896 -0.725786 -0.577875
v 0.310655 -0.900474 -0.146190
v 0.367283 -0.725786 -0.253422
v 0.318783 -0.622992 -0.470140
v 0.243932 -0.392163 -0.680779
v 0.249682 -0.066954 -0.698939
v 0.519907 -0.381972 -0.234164
v 0.554022 -0.066954 -0.320702
v 0.356364 -0.392163 -0.518175
v 0.391418 -0.066954 -0.536335
v -0.024370 -0.894186 -0.759547
v 0.024845 -0.717372 -0.820079
v 0.081327 -0.392163 -0.867667
v 0.087077 -0.066954 -0.840589
v 0.626153 -0.266775 -0.114094
v 0.653452 -0.066954 -0.158097
v 0.139238 0.281563 -0.692315
v 0.125175 0.583464 -0.612306
v 0.571860 0.258255 -0.362006
v 0.563872 0.583464 -0.360759
v 0.409255 0.258255 -0.524192
v 0.401268 0.583464 -0.497479
v 0.125175 1.016593 -0.328252
v 0.125175 1.123225 -0.165648
v 0.125175 0.853989 -0.487416
v 0.458118 0.922724 -0.307005
v 0.450384 1.117557 -0.149871
v 0.354871 0.823687 -0.458735
v 0.040210 0.188699 -0.790772
v 0.680630 0.258255 -0.199401
v 0.679382 0.583464 -0.198154
v 0.644046 0.908673 -0.141645
v 0.615275 1.075052 -0.093820
vt 0.537858 0.272145
vt 0.570523 0.233148
vt 0.614389 0.269901
vt 0.556013 0.314286
vt 0.420621 0.145184
vt 0.445042 0.120243
vt 0.469359 0.142812
vt 0.434240 0.196280
vt 0.473953 0.211882
vt 0.505537 0.175819
vt 0.072482 0.796746
vt 0.036162 0.807877
vt 0.040209 0.762736
vt 0.074832 0.754959
vt 0.039943 0.709170
vt 0.006994 0.718053
vt 0.470267 0.299363
vt 0.490183 0.349674
vt 0.446571 0.336037
vt 0.431351 0.286749
vt 0.493845 0.261003
vt 0.538868 0.205550
vt 0.512052 0.308783
vt 0.447549 0.247130
vt 0.031440 0.853880
vt 0.002720 0.865722
vt 0.000000 0.819234
vt 0.530759 0.359681
vt 0.495029 0.072707
vt 0.525455 0.045937
vt 0.580345 0.057226
vt 0.520212 0.095964
vt 0.555506 0.127914
vt 0.595255 0.096651
vt 0.604872 0.164936
vt 0.645442 0.110035
vt 0.696619 0.164083
vt 0.678702 0.190397
vt 0.682977 0.049406
vt 0.723541 0.032006
vt 0.754672 0.055322
vt 0.744965 0.081718
vt 0.729261 0.116785
vt 0.688984 0.089531
vt 0.661754 0.213208
vt 0.611685 0.197874
vt 0.638138 0.070821
vt 0.628543 0.031656
vt 0.539476 0.436126
vt 0.555316 0.404760
vt 0.619617 0.450514
vt 0.579446 0.472488
vt 0.623598 0.370643
vt 0.667826 0.313290
vt 0.721515 0.348897
vt 0.665597 0.404456
vt 0.826881 0.450585
vt 0.840184 0.402281
vt 0.870677 0.424220
vt 0.874009 0.459912
vt 0.049986 0.663457
vt 0.099705 0.607965
vt 0.160155 0.645149
vt 0.118020 0.698579
vt 0.158650 0.535561
vt 0.217837 0.582605
vt 0.191699 0.606241
vt 0.137034 0.561487
vt 0.176856 0.515456
vt 0.218623 0.549462
vt 0.065273 0.459961
vt 0.034632 0.429782
vt 0.040154 0.391415
vt 0.089298 0.433861
vt 0.907509 0.407191
vt 0.954564 0.387758
vt 0.976830 0.421195
vt 0.926141 0.448952
vt 0.958019 0.350718
vt 0.876161 0.362177
vt 0.026732 0.627157
vt 0.011097 0.670768
vt 0.001622 0.634966
vt 0.054971 0.580862
vt 0.090812 0.520714
vt 0.091241 0.543868
vt 0.130947 0.494475
vt 0.665300 0.490241
vt 0.619101 0.498773
vt 0.750248 0.399528
vt 0.719413 0.441649
vt 0.747743 0.461514
vt 0.709884 0.498773
vt 0.106396 0.494475
vt 0.147435 0.483162
vt 0.980374 0.462018
vt 0.936156 0.491847
vt 0.885536 0.500928
vt 0.830115 0.341017
vt 0.794655 0.362046
vt 0.774939 0.249463
vt 0.799019 0.202256
vt 0.836322 0.234038
vt 0.834106 0.290470
vt 0.880519 0.206383
vt 0.908277 0.254274
vt 0.835049 0.181238
vt 0.792742 0.314194
vt 0.761116 0.284286
vt 0.926711 0.290684
vt 0.877010 0.316930
vt 0.841570 0.127199
vt 0.882371 0.156303
vt 0.798277 0.155342
vt 0.470513 0.512458
vt 0.534853 0.498773
vt 0.516401 0.527468
vt 0.455411 0.538550
vt 0.033291 0.935622
vt 0.048116 0.913520
vt 0.106473 0.952710
vt 0.090225 0.976631
vt 0.359648 0.336895
vt 0.334132 0.294813
vt 0.385825 0.267256
vt 0.387627 0.311657
vt 0.110579 0.824480
vt 0.149373 0.845640
vt 0.156693 0.879655
vt 0.090531 0.852662
vt 0.136880 0.789976
vt 0.175900 0.814230
vt 0.391448 0.154678
vt 0.343238 0.092179
vt 0.376599 0.080275
vt 0.402635 0.117422
vt 0.289636 0.238064
vt 0.241918 0.188276
vt 0.296691 0.130236
vt 0.344276 0.192696
vt 0.580548 0.500956
vt 0.578284 0.530163
vt 0.168259 0.970801
vt 0.134428 1.000000
vt 0.207877 0.836528
vt 0.218623 0.871263
vt 0.195580 0.907633
vt 0.067819 0.884841
vt 0.126424 0.924389
vt 0.298272 0.091523
vt 0.308671 0.083085
vt 0.337786 0.254555
vt 0.372646 0.229032
vt 0.402635 0.201066
vt 0.167139 0.941995
vt 0.286367 0.271499
vt 0.439602 0.590181
vt 0.500102 0.578497
vt 0.491083 0.646939
vt 0.434307 0.638766
vt 0.491409 0.675736
vt 0.435467 0.675685
vt 0.451802 0.773764
vt 0.506179 0.767317
vt 0.515580 0.792731
vt 0.463240 0.806677
vt 0.549729 0.842438
vt 0.485250 0.844978
vt 0.620204 0.609628
vt 0.575397 0.664198
vt 0.546967 0.629870
vt 0.565395 0.581824
vt 0.191744 0.139400
vt 0.139016 0.095082
vt 0.191866 0.049438
vt 0.247525 0.084552
vt 0.083450 0.055830
vt 0.048120 0.034403
vt 0.087494 0.000000
vt 0.132932 0.007734
vt 0.581827 0.756013
vt 0.567277 0.796676
vt 0.591151 0.825760
vt 0.237638 0.008220
vt 0.293741 0.047086
vt 0.294386 0.070759
vt 0.283987 0.079197
vt 0.496181 0.721988
vt 0.442061 0.726335
vt 0.629873 0.698564
vt 0.557090 0.714424
vt 0.249498 0.442681
vt 0.223896 0.403362
vt 0.278132 0.387258
vt 0.306882 0.396925
vt 0.281197 0.349659
vt 0.323410 0.364727
vt 0.229318 0.366058
vt 0.186389 0.337233
vt 0.132776 0.291776
vt 0.172725 0.252755
vt 0.235255 0.288195
vt 0.101853 0.322625
vt 0.156689 0.365900
vt 0.201882 0.225057
vt 0.239635 0.249317
vt 0.214087 0.465353
vt 0.178406 0.444714
vt 0.121161 0.401334
vt 0.073283 0.352414
vt 0.083105 0.243820
vt 0.034597 0.195969
vt 0.062410 0.166796
vt 0.114834 0.211468
vt 0.005416 0.230863
vt 0.042233 0.281679
vt 0.887570 0.060002
vt 0.951719 0.033440
vt 0.977238 0.078273
vt 0.907761 0.091754
vt 0.975315 0.116099
vt 0.930350 0.132202
vt 0.092238 0.137900
vt 0.144381 0.183075
vt 0.981730 0.022036
vt 1.000000 0.050794
vt 0.000000 0.161266
vt 0.011722 0.120903
vt 0.999870 0.154510
vt 0.955010 0.186939
vt 0.047171 0.088367
vt 0.402635 0.137317
vt 0.424337 0.099631
vt 0.005184 0.912536
vt 0.402635 0.602487
vt 0.403264 0.634774
vt 0.521746 0.021735
vt 0.561034 0.009226
vt 0.670457 0.000000
vt 0.709446 0.007695
vt 0.841895 0.016280
vt 0.863245 0.031121
vt 0.830037 0.059090
vt 0.814465 0.042357
vt 0.616841 0.001125
vt 0.203683 0.672306
vt 0.181934 0.737849
vt 0.202142 0.489308
vt 0.217081 0.636093
vt 0.979874 0.241568
vt 0.849028 0.076266
vt 0.973579 0.273282
vt 0.508803 0.398957
vt 0.200099 0.775475
vt 0.752232 0.193960
vt 0.725892 0.234134
vt 0.802940 0.090583
vt 0.772420 0.132066
vt 0.761116 0.148173
vt 0.706052 0.264255
vt 0.927628 0.001918
vt 0.026578 0.061462
vt 0.969352 0.000000
vt 0.733416 0.302437
vt 0.629873 0.558731
vt 0.037888 0.314224
vt 0.472640 0.050558
vt 1.000000 0.315132
vn -0.9219 -0.1142 0.3702
vn -0.5723 -0.3226 0.7539
vn -0.5183 -0.3130 0.7959
vn -0.3306 -0.7659 0.5514
vn -0.3795 -0.7655 0.5196
vn -0.4630 -0.6157 0.6376
vn -0.7032 -0.2519 0.6649
vn -0.7234 -0.3756 0.5794
vn -0.7043 -0.2835 0.6508
vn -0.5216 -0.5011 0.6905
vn -0.5406 -0.5438 0.6419
vn -0.5063 -0.5847 0.6338
vn -0.4067 -0.5995 0.6893
vn -0.6966 -0.4576 0.5526
vn -0.6002 0.2810 0.7488
vn -0.5743 0.2937 0.7641
vn -0.8442 0.4492 0.2926
vn -0.6490 0.7444 0.1573
vn -0.5900 0.7882 0.1750
vn -0.8215 0.4818 0.3050
vn -0.7962 0.3271 0.5090
vn -0.6488 0.4719 0.5969
vn -0.8451 0.4989 0.1921
vn -0.6601 0.6017 0.4497
vn -0.5335 0.5953 0.6008
vn -0.8306 -0.5331 0.1611
vn -0.9517 0.3005 -0.0635
vn -0.8130 0.3808 -0.4405
vn -0.0802 -0.9964 0.0269
vn 0.2196 -0.7579 -0.6144
vn 0.2612 -0.6511 -0.7126
vn 0.5744 0.2766 -0.7704
vn 0.1090 0.2969 -0.9487
vn -0.0148 0.7581 -0.6520
vn -0.5842 -0.7451 0.3217
vn -0.2598 -0.9615 0.0899
vn -0.3589 -0.7102 -0.6057
vn -0.3611 -0.7106 -0.6039
vn -0.2679 0.3521 -0.8968
vn -0.3828 0.7497 -0.5397
vn -0.8307 -0.5294 -0.1721
vn 0.0417 -0.9679 -0.2478
vn -0.8835 0.3925 -0.2557
vn -0.9474 -0.2683 0.1745
vn -0.9007 -0.0711 -0.4286
vn 0.6353 -0.2238 -0.7391
vn 0.1823 -0.1254 -0.9752
vn -0.9544 -0.1526 -0.2565
vn -0.2342 -0.0703 -0.9696
vn -0.2024 -0.9667 -0.1566
vn -0.6183 0.6300 -0.4699
vn -0.7178 0.5610 -0.4123
vn -0.4208 0.5408 -0.7283
vn -0.6009 0.5643 -0.5662
vn -0.7034 0.6213 -0.3452
vn -0.3286 0.6617 -0.6739
vn -0.5296 0.6121 -0.5872
vn -0.6519 0.6369 -0.4116
vn -0.1187 -0.3170 0.9410
vn -0.1059 -0.6190 0.7782
vn 0.7747 -0.6291 0.0636
vn 0.1450 -0.7221 0.6764
vn 0.1348 -0.9808 0.1412
vn 0.8183 -0.3506 0.4555
vn 0.9199 -0.2753 -0.2794
vn 0.1687 -0.2744 0.9467
vn 0.2770 -0.7262 0.6292
vn 0.6235 -0.7809 -0.0385
vn 0.0813 -0.8260 0.5577
vn 0.9275 -0.3706 0.0497
vn 0.9188 -0.3944 -0.0176
vn -0.0601 -0.7052 0.7064
vn 0.9027 -0.3749 -0.2110
vn 0.8958 -0.4350 0.0911
vn 0.3151 -0.6353 0.7050
vn 0.8198 -0.4257 -0.3831
vn 0.3930 -0.8762 0.2791
vn -0.1401 0.2556 0.9566
vn -0.1951 0.4583 0.8671
vn -0.1729 0.8762 0.4498
vn -0.0731 0.9811 0.1794
vn 0.8081 0.2569 0.5301
vn 0.9689 0.0675 -0.2381
vn 0.9247 0.3794 -0.0316
vn 0.1709 0.2202 0.9604
vn 0.3686 0.6406 0.6736
vn 0.4354 0.6777 0.5926
vn 0.2458 0.9653 0.0883
vn 0.9539 0.2699 0.1313
vn 0.9515 0.3076 0.0022
vn -0.1925 0.7184 0.6685
vn -0.2035 0.6477 0.7342
vn 0.9422 0.3174 -0.1074
vn 0.9001 0.3696 0.2309
vn 0.3788 0.5490 0.7450
vn 0.4066 0.7593 0.5081
vn 0.6143 -0.6948 -0.3741
vn 0.6507 -0.6759 -0.3460
vn 0.7906 -0.4337 -0.4322
vn 0.8258 -0.1768 -0.5355
vn 0.7852 -0.0835 -0.6136
vn 0.8292 -0.2283 -0.5103
vn 0.7550 -0.4880 -0.4380
vn 0.7107 -0.0029 -0.7035
vn 0.8557 -0.3042 -0.4186
vn 0.7667 -0.2791 -0.5782
vn 0.7644 -0.2627 -0.5888
vn 0.6759 0.0482 -0.7354
vn 0.4593 0.1647 -0.8729
vn 0.1472 0.7214 -0.6767
vn 0.2162 0.7105 -0.6697
vn 0.8231 0.0139 -0.5677
vn 0.5259 0.4593 -0.7159
vn 0.6546 0.2837 -0.7007
vn 0.2764 0.3159 -0.9076
vn 0.7165 0.2596 -0.6475
vn -0.2477 -0.2421 0.9381
vn -0.2906 -0.6136 0.7342
vn -0.1715 -0.7068 0.6863
vn -0.0446 -0.9708 0.2359
vn -0.2684 -0.5935 0.7588
vn -0.2124 -0.7458 0.6314
vn -0.2752 0.2015 0.9400
vn -0.3945 0.5149 0.7611
vn -0.4177 0.7665 0.4878
vn -0.3277 0.9362 0.1269
vn -0.3969 0.5410 0.7415
vn -0.4080 0.7251 0.5547
vn 0.2309 -0.9680 -0.0989
vn 0.4704 -0.5302 -0.7055
vn 0.5615 0.1778 -0.8081
vn 0.6459 -0.2517 -0.7207
vn 0.2518 -0.9322 -0.2601
vn 0.0031 0.4151 -0.9098
vn -0.3738 0.7507 -0.5446
vn -0.3113 0.7567 -0.5749
vn -0.1486 0.4134 -0.8983
vn 0.1872 0.5845 -0.7895
vn -0.3740 -0.7931 0.4807
vn -0.1501 -0.9656 0.2122
vn -0.9601 0.0231 0.2786
vn -0.8864 -0.2823 0.3669
vn -0.6889 -0.4944 0.5301
vn 0.8153 -0.5366 -0.2176
vn 0.2391 -0.9702 -0.0382
vn 0.8945 -0.2426 -0.3756
vn 0.8388 -0.4048 -0.3640
vn 0.8527 -0.3337 -0.4020
vn -0.8072 0.5747 -0.1346
vn -0.6502 0.7448 -0.1504
vn -0.5988 0.7810 -0.1773
vn -0.8365 0.5258 -0.1543
vn -0.8588 0.5075 -0.0699
vn 0.9095 0.0175 -0.4153
vn -0.0147 0.9692 -0.2458
vn 0.9130 0.3117 -0.2633
vn 0.9106 0.1914 -0.3664
vn 0.3570 0.8976 -0.2586
vn -0.9470 0.1864 0.2617
vn -0.5458 -0.0253 0.8375
vn -0.6224 -0.0035 0.7827
vn -0.7646 0.0840 0.6390
vn -0.7751 0.1257 0.6192
vn -0.8923 0.4146 -0.1786
vn -0.1394 0.5210 -0.8421
vn -0.4846 0.6423 -0.5937
vn -0.6908 0.5833 -0.4274
vn -0.1487 -0.0492 0.9877
vn 0.8207 -0.0550 0.5687
vn 0.9286 -0.0498 0.3677
vn 0.9522 -0.1194 -0.2811
vn 0.9459 -0.0694 -0.3168
vn 1.0000 0.0000 0.0000
vn 0.2377 -0.0497 0.9701
vn 0.7560 -0.0706 -0.6507
vn 0.6263 0.1076 -0.7721
vn 0.6124 0.2301 -0.7563
vn 0.8355 -0.1258 -0.5349
vn -0.9425 0.3278 0.0652
vn 0.8985 -0.1339 -0.4180
vn -0.3098 -0.0335 0.9502
vn 0.3120 0.3768 -0.8722
vn 0.0841 -0.9919 0.0953
vn -0.3315 0.9362 -0.1170
usemtl None
s off
f 2/1/1 3/2/1 5/3/1 4/4/1
f 9/5/2 10/6/2 12/7/2 11/8/2
f 7/9/3 11/8/3 12/7/3 8/10/3
f 16/11/4 17/12/4 19/13/4 18/14/4
f 14/15/5 18/14/5 19/13/5 15/16/5
f 13/17/6 15/18/6 19/19/6 17/20/6
f 2/1/7 20/21/7 21/22/7 3/2/7
f 2/1/8 4/4/8 22/23/8 20/21/8
f 7/9/9 8/10/9 21/22/9 20/21/9
f 7/9/10 20/21/10 23/24/10 11/8/10
f 13/17/11 20/21/11 22/23/11 15/18/11
f 13/17/12 17/20/12 23/24/12 20/21/12
f 6/25/13 11/26/13 23/27/13 17/12/13
f 1/28/14 15/18/14 22/23/14 4/4/14
f 28/29/15 29/30/15 31/31/15 30/32/15
f 26/33/16 30/32/16 31/31/16 27/34/16
f 33/35/17 34/36/17 36/37/17 35/38/17
f 40/39/18 41/40/18 43/41/18 42/42/18
f 40/39/19 42/42/19 39/43/19 38/44/19
f 33/35/20 35/38/20 25/45/20 24/46/20
f 26/33/21 27/34/21 34/36/21 33/35/21
f 31/31/22 37/47/22 34/36/22 27/34/22
f 34/36/23 38/44/23 39/43/23 36/37/23
f 34/36/24 37/47/24 40/39/24 38/44/24
f 31/31/25 32/48/25 40/39/25 37/47/25
f 44/49/26 45/50/26 47/51/26 46/52/26
f 48/53/27 49/54/27 51/55/27 50/56/27
f 55/57/28 56/58/28 58/59/28 57/60/28
f 59/61/29 61/62/29 63/63/29 62/64/29
f 66/65/30 69/66/30 68/67/30 65/68/30
f 66/65/31 67/69/31 70/70/31 69/66/31
f 76/71/32 77/72/32 75/73/32 74/74/32
f 73/75/33 77/76/33 76/77/33 72/78/33
f 75/79/34 77/76/34 73/75/34 71/80/34
f 44/81/35 59/61/35 60/82/35 45/83/35
f 44/81/36 46/84/36 61/62/36 59/61/36
f 53/85/37 66/65/37 65/68/37 52/86/37
f 53/85/38 54/87/38 67/69/38 66/65/38
f 58/59/39 73/75/39 72/78/39 57/60/39
f 71/80/40 73/75/40 58/59/40 56/58/40
f 46/52/41 47/51/41 53/88/41 52/89/41
f 61/62/42 65/68/42 68/67/42 63/63/42
f 50/56/43 51/55/43 56/90/43 55/91/43
f 45/50/44 48/53/44 50/56/44 47/51/44
f 53/88/45 55/91/45 57/92/45 54/93/45
f 70/94/46 76/71/46 74/74/46 69/95/46
f 72/78/47 76/77/47 70/96/47 67/97/47
f 47/51/48 50/56/48 55/91/48 53/88/48
f 57/60/49 72/78/49 67/97/49 54/98/49
f 46/84/50 52/86/50 65/68/50 61/62/50
f 64/99/51 71/80/51 56/58/51 51/100/51
f 80/101/52 81/102/52 83/103/52 82/104/52
f 83/103/53 86/105/53 85/106/53 82/104/53
f 84/107/54 86/105/54 83/103/54 81/102/54
f 80/101/55 82/104/55 79/108/55 78/109/55
f 85/106/56 92/110/56 91/111/56 82/104/56
f 84/107/57 88/112/57 90/113/57 86/105/57
f 87/114/58 88/112/58 84/107/58 81/102/58
f 95/115/59 98/116/59 99/117/59 96/118/59
f 95/119/60 97/120/60 100/121/60 98/122/60
f 106/123/61 107/124/61 105/125/61 104/126/61
f 101/127/62 104/128/62 105/129/62 102/130/62
f 101/127/63 103/131/63 106/132/63 104/128/63
f 112/133/64 113/134/64 111/135/64 110/136/64
f 119/137/65 120/138/65 118/139/65 117/140/65
f 98/116/66 110/141/66 111/142/66 99/117/66
f 98/122/67 100/121/67 112/143/67 110/144/67
f 105/129/68 107/145/68 116/146/68 115/147/68
f 93/148/69 102/130/69 105/129/69 94/149/69
f 117/140/70 118/139/70 113/134/70 112/133/70
f 113/134/71 118/139/71 121/150/71 114/151/71
f 93/148/72 94/149/72 100/121/72 97/120/72
f 116/152/73 119/137/73 117/140/73 115/153/73
f 115/153/74 117/140/74 112/133/74 109/154/74
f 94/149/75 109/155/75 112/143/75 100/121/75
f 108/156/76 119/137/76 116/152/76 107/124/76
f 94/149/77 105/129/77 115/147/77 109/155/77
f 122/157/78 125/158/78 126/159/78 123/160/78
f 126/159/79 127/161/79 124/162/79 123/160/79
f 130/163/80 133/164/80 134/165/80 131/166/80
f 134/165/81 135/167/81 132/168/81 131/166/81
f 138/169/82 139/170/82 137/171/82 136/172/82
f 144/173/83 145/174/83 143/175/83 142/176/83
f 149/177/84 150/178/84 148/179/84 147/180/84
f 125/158/85 136/172/85 137/171/85 126/159/85
f 137/171/86 139/170/86 127/161/86 126/159/86
f 133/164/87 147/181/87 148/182/87 134/165/87
f 148/182/88 150/183/88 135/167/88 134/165/88
f 142/176/89 143/175/89 139/184/89 138/185/89
f 140/186/90 146/187/90 142/176/90 138/185/90
f 129/188/91 133/164/91 130/163/91 128/189/91
f 124/162/92 127/161/92 129/188/92 128/189/92
f 145/174/93 149/177/93 147/180/93 143/175/93
f 143/190/94 147/181/94 141/191/94 139/170/94
f 127/161/95 139/170/95 141/191/95 129/188/95
f 141/191/96 147/181/96 133/164/96 129/188/96
f 153/192/97 154/193/97 152/194/97 151/195/97
f 152/194/98 156/196/98 155/197/98 151/195/98
f 152/194/99 154/193/99 157/198/99 156/196/99
f 162/199/100 163/200/100 161/201/100 160/202/100
f 159/203/101 163/200/101 162/199/101 158/204/101
f 161/201/102 169/205/102 168/206/102 160/202/102
f 164/207/103 165/208/103 154/193/103 153/192/103
f 166/209/104 167/210/104 159/203/104 158/204/104
f 157/198/105 162/199/105 160/202/105 156/196/105
f 158/204/106 162/199/106 157/198/106 154/193/106
f 165/208/107 166/209/107 158/204/107 154/193/107
f 174/211/108 175/212/108 173/213/108 172/214/108
f 171/215/109 175/212/109 174/211/109 170/216/109
f 177/217/110 180/218/110 179/219/110 176/220/110
f 179/219/111 181/221/111 178/222/111 176/220/111
f 173/213/112 184/223/112 183/224/112 172/214/112
f 180/218/113 186/225/113 185/226/113 179/219/113
f 175/212/114 181/227/114 179/228/114 173/213/114
f 178/222/115 181/221/115 175/229/115 171/230/115
f 179/228/116 185/231/116 184/223/116 173/213/116
f 9/5/117 95/232/117 96/233/117 10/6/117
f 9/234/118 11/26/118 97/120/118 95/119/118
f 16/11/119 101/127/119 102/130/119 17/12/119
f 16/11/120 18/14/120 103/131/120 101/127/120
f 6/25/121 93/148/121 97/120/121 11/26/121
f 6/25/122 17/12/122 102/130/122 93/148/122
f 28/235/123 122/157/123 123/160/123 29/236/123
f 123/237/124 124/238/124 31/31/124 29/30/124
f 40/39/125 130/239/125 131/240/125 41/40/125
f 131/241/126 132/242/126 43/243/126 41/244/126
f 31/31/127 124/238/127 128/245/127 32/48/127
f 128/245/128 130/239/128 40/39/128 32/48/128
f 62/64/129 63/63/129 153/246/129 151/247/129
f 69/95/130 165/208/130 164/207/130 68/248/130
f 75/73/131 167/210/131 166/209/131 74/74/131
f 74/74/132 166/209/132 165/208/132 69/95/132
f 63/63/133 68/67/133 164/249/133 153/246/133
f 86/105/134 171/230/134 170/250/134 85/106/134
f 89/251/135 177/217/135 176/220/135 88/112/135
f 176/220/136 178/222/136 90/113/136 88/112/136
f 90/113/137 178/222/137 171/230/137 86/105/137
f 170/250/138 182/252/138 92/110/138 85/106/138
f 14/15/139 15/16/139 60/82/139 59/61/139
f 14/15/140 59/61/140 62/64/140 18/14/140
f 4/4/141 5/3/141 49/54/141 48/53/141
f 1/28/142 4/4/142 48/53/142 45/50/142
f 1/28/143 45/50/143 60/253/143 15/18/143
f 155/197/144 156/196/144 107/124/144 106/123/144
f 103/131/145 151/247/145 155/254/145 106/132/145
f 168/206/146 169/205/146 120/138/146 119/137/146
f 156/196/147 160/202/147 108/156/147 107/124/147
f 108/156/148 160/202/148 168/206/148 119/137/148
f 35/38/149 36/37/149 81/255/149 80/256/149
f 42/257/150 43/243/150 89/251/150 88/112/150
f 42/257/151 88/112/151 87/114/151 39/258/151
f 36/37/152 39/43/152 87/259/152 81/255/152
f 35/38/153 80/256/153 78/260/153 25/45/153
f 183/224/154 184/223/154 145/174/154 144/173/154
f 135/261/155 180/218/155 177/217/155 132/242/155
f 185/231/156 186/262/156 150/178/156 149/177/156
f 184/223/157 185/231/157 149/177/157 145/174/157
f 150/263/158 186/225/158 180/218/158 135/261/158
f 3/2/159 24/46/159 25/45/159 5/3/159
f 10/6/160 28/29/160 30/32/160 12/7/160
f 8/10/161 12/7/161 30/32/161 26/33/161
f 8/10/162 26/33/162 33/35/162 21/22/162
f 3/2/163 21/22/163 33/35/163 24/46/163
f 49/54/164 78/260/164 79/264/164 51/55/164
f 91/111/165 92/110/165 75/79/165 71/80/165
f 64/99/166 82/104/166 91/111/166 71/80/166
f 79/108/167 82/104/167 64/99/167 51/100/167
f 96/118/168 99/117/168 125/158/168 122/157/168
f 113/265/169 138/169/169 136/172/169 111/142/169
f 113/134/170 114/151/170 140/186/170 138/185/170
f 120/138/171 144/173/171 142/176/171 118/139/171
f 142/176/172 146/187/172 121/150/172 118/139/172
f 121/150/173 146/187/173 140/186/173 114/151/173
f 99/117/174 111/142/174 136/172/174 125/158/174
f 163/200/175 174/211/175 172/214/175 161/201/175
f 170/216/176 174/211/176 163/200/176 159/203/176
f 167/210/177 182/266/177 170/216/177 159/203/177
f 172/214/178 183/224/178 169/205/178 161/201/178
f 5/3/179 25/45/179 78/260/179 49/54/179
f 169/205/180 183/224/180 144/173/180 120/138/180
f 10/6/181 96/233/181 122/267/181 28/29/181
f 92/110/182 182/252/182 167/268/182 75/79/182
f 18/14/183 62/64/183 151/247/183 103/131/183
f 132/242/184 177/217/184 89/251/184 43/243/184
