# Blender v2.90.0 OBJ File: 'piedras3.blend'
# www.blender.org
mtllib modeloPiedras5.mtl
v -1.199429 0.045115 0.177386
v 0.112255 -1.046750 1.405512
v 0.033324 -0.715813 1.470178
v 0.022214 -0.086883 1.465701
v -0.628653 -1.169933 0.326910
v 0.060443 -1.728771 0.869251
v -0.043160 -1.297439 1.081367
v -0.010153 -1.752345 0.441882
v -0.363092 -1.371349 0.500587
v -0.593774 -0.596842 0.834550
v -0.645850 -0.077373 0.886087
v -0.749413 -0.772118 0.500587
v -0.996204 -0.131568 0.410873
v -0.328311 -0.772118 1.060547
v -0.158683 0.022694 1.266480
v -0.512975 -1.022469 0.752537
v -1.199429 0.394084 0.177386
v -0.614344 0.448641 0.854301
v -0.876319 0.634176 0.466447
v -0.701693 1.199507 0.292678
v -0.207469 0.558057 1.059275
v -0.086753 0.914522 0.845767
v -0.512379 0.874268 0.755508
v -0.260242 1.156204 0.524443
v -0.569907 1.535672 0.142132
v -0.201257 1.547235 0.150254
v -1.220687 -0.551257 -0.343823
v -1.274919 -0.131568 -0.157229
v -1.256492 -0.613247 -0.834997
v -1.394807 -0.077373 -0.834997
v -1.227246 -0.530802 -1.294715
v -1.280188 -0.077373 -1.334657
v -0.727235 -1.233505 -0.196557
v -0.748091 -1.181250 -0.834997
v 0.004662 -1.723337 -0.020230
v -0.205394 -1.555640 -0.218449
v -0.159232 -1.258460 -0.865469
v -1.061312 -0.744767 -0.157229
v -1.146191 -0.380511 0.081803
v -1.067311 -0.932467 -0.834997
v 0.068913 -0.715813 -1.058332
v -0.061445 -0.077373 -1.003209
v -0.656461 -1.100259 -1.258573
v -0.344029 -1.100259 -1.258573
v -0.857443 -0.732494 -1.379592
v -0.839697 -0.077373 -1.433991
v -0.250307 -0.715813 -1.330563
v -0.380665 -0.077373 -1.253551
v -1.277372 0.588565 -0.156713
v -1.212777 1.199507 -0.377148
v -1.412930 0.561067 -0.834997
v -1.328286 1.199507 -0.834997
v -1.164871 1.531527 -0.503752
v -1.212588 1.653625 -0.834997
v -1.295245 0.561067 -1.272714
v -1.274426 1.199507 -1.269717
v -1.208122 1.803634 -1.301875
v -1.138294 0.819711 0.082663
v -1.020912 1.199507 -0.057929
v -0.580887 0.670942 -1.119966
v -0.580887 1.040160 -1.119966
v -0.263518 0.499304 -0.947651
v -0.242022 1.231587 -0.976359
v -0.805511 1.649875 -0.253186
v -0.881141 1.995322 -0.793267
v -0.695958 2.252626 -0.978260
v -0.201257 1.805921 -0.196557
v -0.145863 1.915753 -0.861566
v -0.323283 2.252626 -0.978260
v -0.812099 0.499304 -1.250019
v -0.812099 1.231587 -1.258415
v -0.517839 0.245315 -1.155891
v -0.482012 1.465786 -1.173881
v -0.927437 1.921478 -1.325394
v -0.811698 2.228761 -1.324166
v -0.251393 1.867615 -1.241504
v -0.323283 2.252626 -1.280031
v 0.664172 -1.744232 1.453871
v 0.445688 -1.297439 1.532918
v 0.940100 -1.744232 1.453871
v 1.047853 -1.354252 1.561785
v 0.437183 -0.715813 1.621084
v 0.437183 -0.206206 1.495111
v 0.994723 -0.715813 1.550449
v 0.869261 -0.342877 1.438756
v 0.445688 -1.824326 1.081367
v 0.238546 -1.472377 1.294877
v 0.437183 -1.901691 0.441882
v 1.121997 -1.818616 1.099811
v 1.367073 -1.354252 1.331318
v 1.116871 -1.820419 0.411939
v 1.357183 -1.627893 0.179164
v 0.437183 0.113014 1.306099
v 1.313943 -0.715813 1.321044
v 1.119464 -0.065746 1.084193
v 1.370481 -0.435227 0.133059
v 1.319950 0.013803 0.363154
v 1.424139 -1.719255 0.899990
v 1.479182 -1.354252 1.012098
v 1.424139 -1.719255 0.604791
v 1.485768 -1.390749 0.411939
v 1.516297 -0.715813 1.001824
v 1.473625 -0.214242 0.886291
v 1.515459 -0.675149 0.384276
v 1.453929 -0.100219 0.483400
v 0.387813 0.576214 0.992522
v 0.142086 0.914522 0.845767
v 0.567713 0.799125 0.702310
v 0.417310 1.198893 0.421146
v 0.944040 0.373498 0.856469
v 1.104648 0.520486 0.434966
v 0.939875 1.057636 0.276683
v 0.266907 1.539792 0.139982
v 0.437183 -1.766194 -0.086470
v 0.450726 -1.396862 -0.391890
v 0.246942 -1.212455 -0.672970
v 0.931556 -1.747236 -0.013288
v 1.116871 -1.390749 -0.070444
v 0.585229 -0.715813 -0.369988
v 0.538825 -0.077373 -0.298816
v 0.266010 -0.715813 -0.739112
v 0.219605 -0.077373 -0.683989
v 1.124850 -0.675149 -0.035748
v 0.982166 -0.077373 0.020404
v 1.433932 -1.202266 0.089886
v 1.433932 -0.860854 0.089886
v 0.525781 0.561067 -0.327662
v 0.643573 1.267610 -0.250423
v 0.206561 0.561067 -0.602477
v 0.403953 1.238664 -0.628376
v 0.978432 0.561067 -0.008442
v 0.850522 1.267610 -0.250423
v 0.761168 1.477582 -0.539995
v 0.462706 1.626471 -0.255088
v 0.373339 1.707344 -0.736922
v 0.761168 1.521154 -0.506922
v 0.761168 1.521154 -0.539995
vt 0.732920 0.519873
vt 0.683842 0.499167
vt 0.734839 0.433939
vt 0.757511 0.481480
vt 0.651292 0.389719
vt 0.596495 0.353276
vt 0.642726 0.293119
vt 0.693191 0.363681
vt 0.645077 0.439699
vt 0.541333 0.412192
vt 0.695630 0.419048
vt 0.600714 0.495139
vt 0.534143 0.449253
vt 0.736061 0.386381
vt 0.634285 0.519022
vt 0.780671 0.194860
vt 0.808526 0.225422
vt 0.813768 0.281039
vt 0.770608 0.261532
vt 0.551315 0.251799
vt 0.492180 0.284456
vt 0.456925 0.263518
vt 0.487811 0.209857
vt 0.495501 0.353653
vt 0.539610 0.315520
vt 0.427273 0.209273
vt 0.450398 0.183047
vt 0.732505 0.245060
vt 0.682860 0.226623
vt 0.712506 0.158655
vt 0.761858 0.206660
vt 0.040630 0.692653
vt 0.098291 0.634532
vt 0.153783 0.686358
vt 0.090706 0.751492
vt 0.385722 0.217549
vt 0.323114 0.219754
vt 0.311532 0.137533
vt 0.381379 0.132350
vt 0.736099 0.285515
vt 0.691986 0.273124
vt 0.006958 0.604292
vt 0.050122 0.562908
vt 0.068632 0.594867
vt 0.004666 0.643217
vt 0.427273 0.215289
vt 0.416959 0.156645
vt 0.145647 0.602754
vt 0.173353 0.629598
vt 0.726780 0.125916
vt 0.770608 0.165222
vt 0.271086 0.221220
vt 0.258015 0.138988
vt 0.315395 0.087096
vt 0.349657 0.085531
vt 0.137161 0.557204
vt 0.267775 0.067267
vt 0.095323 0.522656
vt 0.605798 0.175281
vt 0.545795 0.118397
vt 0.571763 0.072616
vt 0.645138 0.111958
vt 0.340406 0.363815
vt 0.294237 0.390297
vt 0.291748 0.295072
vt 0.338946 0.315864
vt 0.845140 0.495259
vt 0.927763 0.447409
vt 0.917063 0.487982
vt 0.877868 0.513609
vt 0.872431 0.380403
vt 0.813475 0.419681
vt 0.384300 0.517132
vt 0.327833 0.522656
vt 0.315808 0.472994
vt 0.395861 0.476645
vt 0.562849 0.188411
vt 0.521183 0.158284
vt 0.468520 0.125674
vt 0.458584 0.051443
vt 0.516329 0.048603
vt 0.512724 0.087842
vt 0.427273 0.381113
vt 0.375932 0.387590
vt 0.372466 0.292483
vt 0.427236 0.298095
vt 0.586862 0.040850
vt 0.656632 0.084514
vt 0.332792 0.260922
vt 0.334911 0.419616
vt 0.369534 0.523474
vt 0.406147 0.522656
vt 0.406147 0.565036
vt 0.365810 0.576603
vt 0.307314 0.522495
vt 0.278591 0.479572
vt 0.939642 0.517614
vt 0.891632 0.554336
vt 0.519587 0.000000
vt 0.424577 0.459921
vt 0.334683 0.585306
vt 0.333898 0.522656
vt 0.365810 0.530724
vt 0.365810 0.594460
vt 0.674755 0.612081
vt 0.658629 0.631827
vt 0.606005 0.620649
vt 0.636319 0.571150
vt 0.570777 0.536406
vt 0.541158 0.570518
vt 0.513207 0.525868
vt 0.521445 0.489845
vt 0.028164 0.930097
vt 0.087723 0.879326
vt 0.150358 0.931203
vt 0.086379 0.989475
vt 0.297222 0.556436
vt 0.323602 0.587565
vt 0.264590 0.618927
vt 0.268340 0.569967
vt 0.333898 0.668784
vt 0.323132 0.735858
vt 0.284553 0.742253
vt 0.273257 0.692514
vt 0.222728 0.554615
vt 0.223950 0.628647
vt 0.333898 0.544357
vt 0.289587 0.522656
vt 0.158994 0.968864
vt 0.131347 0.993720
vt 0.924013 0.000575
vt 0.969180 0.018006
vt 0.972187 0.057468
vt 0.919792 0.069845
vt 0.027053 0.239257
vt 0.003734 0.225056
vt 0.001454 0.150750
vt 0.035382 0.181316
vt 1.000000 0.104109
vt 0.994645 0.130855
vt 0.677166 0.549262
vt 0.711744 0.571618
vt 0.174614 0.625225
vt 0.173353 0.571314
vt 0.012216 0.976293
vt 0.036684 1.000000
vt 0.867583 0.038320
vt 0.873275 0.000000
vt 0.831022 0.103948
vt 0.817611 0.069360
vt 0.225045 0.698280
vt 0.175813 0.694809
vt 0.888355 0.188710
vt 0.892659 0.246733
vt 0.832593 0.209685
vt 0.848231 0.161391
vt 0.965467 0.164049
vt 0.958751 0.217891
vt 0.917375 0.126323
vt 0.168137 0.052098
vt 0.073254 0.056059
vt 0.088280 0.008802
vt 0.147395 0.003901
vt 0.214695 0.139806
vt 0.218560 0.222459
vt 0.157364 0.223853
vt 0.154590 0.141209
vt 0.087041 0.225905
vt 0.072848 0.149016
vt 0.210326 0.075175
vt 0.029677 0.126381
vt 0.028328 0.082041
vt 0.216972 0.305265
vt 0.199765 0.394269
vt 0.147903 0.399027
vt 0.163279 0.306718
vt 0.125209 0.400065
vt 0.091935 0.308817
vt 0.394202 0.588691
vt 0.394202 0.641674
vt 0.365810 0.622338
vt 0.371741 0.576603
vt 0.997525 0.330399
vt 1.000000 0.333647
vt 0.973520 0.389002
vt 0.947051 0.331482
vt 0.155527 0.427040
vt 0.155699 0.432699
vt 0.153450 0.432682
vt 0.966547 0.300569
vt 0.988312 0.286338
vt 0.212355 0.455041
vt 0.013349 0.874436
vt 0.047243 0.833545
vt 0.771525 0.144279
vt 0.775895 0.106775
vt 0.897097 0.301800
vt 0.847074 0.333359
vt 0.164270 0.785449
vt 0.136470 0.828172
vt 0.091679 0.794480
vt 0.171522 0.735200
vt 0.008377 0.789421
vt 0.000000 0.742072
vt 0.770608 0.340955
vt 0.645467 0.246879
vt 0.028991 0.026332
vt 0.038756 0.000000
vt 0.173353 0.875876
vt 0.000000 0.057651
vt 0.808937 0.358927
vt 0.608064 0.222064
vt 0.078739 0.372962
vt 0.047784 0.303943
vn -0.7628 -0.5448 0.3482
vn -0.8074 -0.1896 0.5587
vn -0.6303 -0.0946 0.7706
vn -0.7721 -0.2584 0.5806
vn -0.7470 -0.0109 0.6647
vn -0.6740 -0.4831 0.5589
vn -0.7760 -0.5003 0.3842
vn -0.7009 -0.3304 0.6321
vn -0.2168 0.6400 0.7372
vn -0.5402 0.5685 0.6205
vn -0.6092 0.3149 0.7278
vn -0.2036 0.6075 0.7678
vn -0.9667 -0.2202 0.1302
vn -0.3379 -0.9065 -0.2531
vn 0.2098 0.0353 -0.9771
vn -0.9052 -0.3153 0.2849
vn -0.8419 -0.5209 0.1414
vn -0.2420 -0.0899 -0.9661
vn -0.0912 -0.9584 -0.2703
vn -0.9677 -0.1936 -0.1617
vn 0.6199 0.2050 -0.7574
vn -0.7437 -0.6632 0.0834
vn 0.0560 -0.2406 -0.9690
vn -0.6639 -0.6370 -0.3916
vn 0.6776 -0.4097 -0.6107
vn -0.6675 -0.6601 -0.3445
vn -0.9658 0.1524 0.2097
vn 0.4343 -0.0319 -0.9002
vn 0.0871 0.4501 0.8887
vn -0.0502 0.9340 0.3537
vn 0.1076 -0.0603 -0.9924
vn -0.8697 0.3020 0.3903
vn -0.6193 0.6520 0.4375
vn 0.0358 -0.0045 -0.9993
vn -0.9780 0.0812 -0.1923
vn 0.5019 -0.0066 -0.8649
vn 0.4777 0.1439 -0.8667
vn 0.4334 -0.2116 -0.8760
vn -0.8632 0.4940 0.1043
vn 0.9425 0.2897 -0.1664
vn -0.0260 0.9991 -0.0322
vn -0.9443 0.2338 0.2315
vn 0.1878 -0.1397 -0.9722
vn -0.9851 0.1683 -0.0357
vn 0.8049 -0.2182 -0.5519
vn -0.6833 0.4624 0.5650
vn -0.0010 -0.0764 -0.9971
vn -0.5998 0.7955 0.0858
vn -0.0465 -0.2237 0.9736
vn 0.1599 0.2778 0.9472
vn 0.0644 -0.9962 0.0588
vn 0.9863 -0.1643 0.0140
vn 0.9953 0.0963 -0.0054
vn 0.7317 -0.4695 0.4941
vn 0.7345 -0.6306 -0.2509
vn 0.3126 -0.9499 0.0001
vn 0.6874 0.3382 0.6427
vn 0.8713 0.2340 -0.4313
vn 0.4890 0.8431 0.2239
vn -0.5731 -0.5333 0.6223
vn 0.6264 -0.4972 0.6003
vn 0.0018 -0.9782 0.2079
vn 0.5433 0.4180 0.7281
vn 0.3454 0.5489 0.7612
vn 0.0329 -0.0612 0.9976
vn 0.9988 -0.0492 0.0045
vn 0.5833 0.0623 0.8098
vn 0.8969 0.0184 0.4418
vn 0.3966 0.6104 0.6857
vn 0.4786 0.4996 0.7220
vn 0.4980 0.6487 0.5754
vn 0.2901 -0.4901 -0.8220
vn 0.7579 0.1185 -0.6415
vn 0.5410 0.1676 -0.8242
vn 0.7560 -0.1227 -0.6429
vn 0.4781 -0.0132 -0.8782
vn 0.4152 0.0267 -0.9093
vn 0.7545 -0.1481 -0.6394
vn 0.4334 -0.1013 -0.8955
vn 0.4088 -0.8097 -0.4211
vn 0.3949 0.9156 0.0753
vn 0.9740 0.1370 -0.1805
vn 0.4661 0.5130 0.7208
vn 0.3629 -0.1724 -0.9158
vn -0.1985 0.1097 0.9739
vn -0.5959 -0.5529 0.5824
vn -0.3066 -0.9452 0.1122
vn -0.4023 -0.1886 0.8959
vn -0.6317 -0.3652 0.6838
vn -0.0320 0.6634 0.7476
vn 0.0611 0.4681 0.8816
vn 0.0275 0.8151 0.5786
vn 0.0528 0.6698 0.7407
vn -0.0824 -0.6976 -0.7117
vn 0.1746 -0.8615 -0.4767
vn 0.7900 0.1605 -0.5917
vn 0.6260 -0.3255 -0.7087
vn 0.5292 -0.1147 -0.8407
vn 0.3006 0.9422 0.1478
vn 0.3734 -0.0162 -0.9275
vn -0.6970 -0.7171 -0.0075
vn -0.5665 -0.8129 0.1352
vn -0.8205 -0.3392 0.4602
vn -0.8179 -0.4915 0.2993
vn -0.8784 -0.2066 0.4309
vn 0.4544 -0.6652 -0.5925
vn 0.0912 -0.9690 -0.2298
vn 0.5194 0.3133 -0.7951
vn 0.9768 -0.0330 -0.2115
vn 0.7668 -0.2613 -0.5864
vn 0.7209 0.1755 -0.6704
vn -0.6606 0.4127 0.6271
vn -0.1797 0.8549 0.4866
vn -0.6408 0.5279 0.5574
vn -0.8254 0.2330 0.5142
vn 0.9700 0.1733 -0.1707
vn 0.2309 0.9416 0.2453
vn 0.7670 0.5179 0.3789
vn -0.8067 0.0838 0.5851
vn -0.5675 0.1721 0.8052
vn -0.7064 0.0407 0.7066
vn -0.9827 -0.0150 0.1848
vn 0.4174 0.3175 -0.8515
vn -0.9705 -0.0136 -0.2405
vn 0.4986 0.3250 -0.8036
vn -0.0678 0.1986 -0.9777
vn 0.8450 0.4063 0.3476
vn 0.3832 0.5434 0.7469
vn 0.7181 0.0433 -0.6946
vn 0.5801 -0.0292 -0.8141
vn -0.9747 -0.0023 0.2236
vn 0.8420 0.1801 -0.5085
vn -0.0217 0.4606 0.8873
vn 0.6404 0.1971 -0.7423
vn -0.2223 -0.9613 -0.1630
vn 0.1719 0.8749 0.4527
usemtl None
s off
f 6/1/1 7/2/1 9/3/1 8/4/1
f 10/5/2 11/6/2 13/7/2 12/8/2
f 10/5/3 14/9/3 15/10/3 11/6/3
f 10/5/4 12/8/4 16/11/4 14/9/4
f 3/12/5 4/13/5 15/10/5 14/9/5
f 7/2/6 14/9/6 16/11/6 9/3/6
f 5/14/7 9/3/7 16/11/7 12/8/7
f 2/15/8 3/12/8 14/9/8 7/2/8
f 21/16/9 22/17/9 24/18/9 23/19/9
f 19/20/10 23/21/10 24/22/10 20/23/10
f 21/24/11 23/21/11 19/20/11 18/25/11
f 20/23/12 24/22/12 26/26/12 25/27/12
f 27/28/13 28/29/13 30/30/13 29/31/13
f 33/32/14 34/33/14 37/34/14 36/35/14
f 46/36/15 48/37/15 47/38/15 45/39/15
f 27/28/16 38/40/16 39/41/16 28/29/16
f 27/42/17 29/43/17 40/44/17 38/45/17
f 32/46/18 46/36/18 45/39/18 31/47/18
f 34/33/19 43/48/19 44/49/19 37/34/19
f 29/31/20 30/30/20 32/50/20 31/51/20
f 47/38/21 48/37/21 42/52/21 41/53/21
f 33/32/22 38/45/22 40/44/22 34/33/22
f 45/39/23 47/38/23 44/54/23 43/55/23
f 34/33/24 40/44/24 45/56/24 43/48/24
f 44/54/25 47/38/25 41/53/25 37/57/25
f 29/43/26 31/58/26 45/56/26 40/44/26
f 49/59/27 50/60/27 52/61/27 51/62/27
f 61/63/28 63/64/28 62/65/28 60/66/28
f 65/67/29 68/68/29 69/69/29 66/70/29
f 67/71/30 68/68/30 65/67/30 64/72/30
f 75/73/31 77/74/31 76/75/31 74/76/31
f 49/59/32 58/77/32 59/78/32 50/60/32
f 64/79/33 65/80/33 54/81/33 53/82/33
f 56/83/34 71/84/34 70/85/34 55/86/34
f 51/62/35 52/61/35 56/87/35 55/88/35
f 70/85/36 71/84/36 61/63/36 60/66/36
f 62/65/37 72/89/37 70/85/37 60/66/37
f 61/63/38 71/84/38 73/90/38 63/64/38
f 65/91/39 66/92/39 75/93/39 74/94/39
f 76/75/40 77/74/40 69/95/40 68/96/40
f 69/69/41 77/97/41 75/98/41 66/70/41
f 50/60/42 53/82/42 54/81/42 52/61/42
f 74/76/43 76/75/43 73/90/43 71/84/43
f 52/61/44 54/81/44 57/99/44 56/87/44
f 73/90/45 76/75/45 68/96/45 63/64/45
f 50/60/46 59/78/46 64/79/46 53/82/46
f 57/100/47 74/76/47 71/84/47 56/83/47
f 65/101/48 74/102/48 57/103/48 54/104/48
f 78/105/49 80/106/49 81/107/49 79/108/49
f 82/109/50 84/110/50 85/111/50 83/112/50
f 86/113/51 88/114/51 91/115/51 89/116/51
f 100/117/52 101/118/52 99/119/52 98/120/52
f 104/121/53 105/122/53 103/123/53 102/124/53
f 89/125/54 98/120/54 99/119/54 90/126/54
f 92/127/55 101/118/55 100/117/55 91/128/55
f 89/116/56 91/115/56 100/129/56 98/130/56
f 94/131/57 102/132/57 103/133/57 95/134/57
f 97/135/58 105/136/58 104/137/58 96/138/58
f 103/133/59 105/139/59 97/140/59 95/134/59
f 78/105/60 79/108/60 87/141/60 86/142/60
f 89/125/61 90/126/61 81/143/61 80/144/61
f 78/145/62 86/113/62 89/116/62 80/146/62
f 94/131/63 95/134/63 85/147/63 84/148/63
f 85/147/64 95/134/64 93/149/64 83/150/64
f 79/108/65 81/107/65 84/110/65 82/109/65
f 101/118/66 104/121/66 102/124/66 99/119/66
f 90/126/67 94/151/67 84/152/67 81/143/67
f 90/126/68 99/119/68 102/124/68 94/151/68
f 108/153/69 109/154/69 107/155/69 106/156/69
f 108/153/70 111/157/70 112/158/70 109/154/70
f 110/159/71 111/157/71 108/153/71 106/156/71
f 115/160/72 118/161/72 117/162/72 114/163/72
f 121/164/73 122/165/73 120/166/73 119/167/73
f 120/166/74 124/168/74 123/169/74 119/167/74
f 116/170/75 121/164/75 119/167/75 115/160/75
f 119/167/76 123/169/76 118/161/76 115/160/76
f 123/169/77 126/171/77 125/172/77 118/161/77
f 129/173/78 130/174/78 128/175/78 127/176/78
f 128/175/79 132/177/79 131/178/79 127/176/79
f 128/179/80 130/180/80 133/181/80 132/182/80
f 136/183/81 137/184/81 135/185/81 134/186/81
f 133/187/82 137/188/82 136/189/82 132/177/82
f 128/190/83 132/191/83 136/183/83 134/186/83
f 135/192/84 137/188/84 133/187/84 130/174/84
f 3/12/85 82/109/85 83/112/85 4/13/85
f 6/1/86 86/142/86 87/141/86 7/2/86
f 6/193/87 8/194/87 88/114/87 86/113/87
f 2/15/88 79/108/88 82/109/88 3/12/88
f 2/15/89 7/2/89 87/141/89 79/108/89
f 83/150/90 93/149/90 15/195/90 4/196/90
f 21/16/91 106/156/91 107/155/91 22/17/91
f 107/155/92 109/154/92 24/18/92 22/17/92
f 24/18/93 109/154/93 113/197/93 26/198/93
f 36/35/94 115/199/94 114/200/94 35/201/94
f 36/35/95 37/34/95 116/202/95 115/199/95
f 42/52/96 122/165/96 121/164/96 41/53/96
f 41/53/97 121/164/97 116/170/97 37/57/97
f 63/64/98 130/174/98 129/173/98 62/65/98
f 134/186/99 135/185/99 68/68/99 67/71/99
f 68/96/100 135/192/100 130/174/100 63/64/100
f 8/194/101 9/203/101 36/35/101 35/201/101
f 5/204/102 33/32/102 36/35/102 9/203/102
f 12/8/103 13/7/103 39/41/103 38/40/103
f 5/14/104 12/8/104 38/40/104 33/205/104
f 1/206/105 28/29/105 39/41/105 13/7/105
f 117/162/106 118/161/106 92/207/106 91/208/106
f 88/114/107 114/200/107 117/209/107 91/115/107
f 123/169/108 124/168/108 97/135/108 96/138/108
f 125/172/109 126/171/109 104/137/109 101/210/109
f 92/207/110 118/161/110 125/172/110 101/210/110
f 104/137/111 126/171/111 123/169/111 96/138/111
f 19/20/112 20/23/112 59/78/112 58/77/112
f 26/198/113 67/71/113 64/72/113 25/211/113
f 20/23/114 25/27/114 64/79/114 59/78/114
f 19/20/115 58/77/115 49/59/115 17/212/115
f 131/178/116 132/177/116 112/213/116 111/214/116
f 112/158/117 132/191/117 128/190/117 109/154/117
f 128/190/118 134/186/118 113/197/118 109/154/118
f 11/6/119 18/25/119 19/20/119 13/7/119
f 11/6/120 15/10/120 21/24/120 18/25/120
f 1/206/121 13/7/121 19/20/121 17/212/121
f 28/29/122 49/59/122 51/62/122 30/30/122
f 70/85/123 72/89/123 48/37/123 46/36/123
f 30/30/124 51/62/124 55/88/124 32/50/124
f 48/37/125 72/89/125 62/65/125 42/52/125
f 55/86/126 70/85/126 46/36/126 32/46/126
f 97/140/127 111/157/127 110/159/127 95/134/127
f 93/149/128 95/134/128 110/159/128 106/156/128
f 122/165/129 129/173/129 127/176/129 120/166/129
f 127/176/130 131/178/130 124/168/130 120/166/130
f 1/206/131 17/212/131 49/59/131 28/29/131
f 124/168/132 131/178/132 111/214/132 97/135/132
f 15/195/133 93/149/133 106/156/133 21/16/133
f 62/65/134 129/173/134 122/165/134 42/52/134
f 8/194/135 35/201/135 114/200/135 88/114/135
f 113/197/136 134/186/136 67/71/136 26/198/136
