# Blender v2.90.0 OBJ File: 'piedras3.blend'
# www.blender.org
mtllib modeloPiedras4.mtl
v -1.404798 -0.627353 0.188552
v -1.445293 -0.250403 0.250615
v -0.238382 -0.031530 1.218504
v -0.278412 -1.226753 0.200548
v -0.873477 -0.644603 0.682035
v -0.926183 -0.250403 0.791683
v -1.053439 -0.757147 0.364430
v -1.220902 -0.250403 0.545335
v -0.439225 -0.745764 0.808102
v -0.436607 -0.236967 1.106382
v -0.460625 -1.044408 0.371627
v -1.404514 0.181974 0.171474
v -0.238382 0.065807 1.218504
v -0.860404 0.339035 0.840416
v -0.785772 0.732212 0.747013
v -1.163131 0.362686 0.354183
v -0.857841 0.928605 0.276566
v -0.436607 0.292986 1.145325
v -0.455137 0.928605 0.882169
v -0.662225 1.125171 0.435071
v -0.734873 1.224223 0.042112
v -0.269266 1.330162 0.746739
v -0.418017 1.473672 0.266017
v -0.173809 1.844857 0.096963
v -1.404798 -0.627353 -0.081441
v -1.426383 -0.211632 -0.269117
v -1.332502 0.010696 -0.557491
v -0.267822 -1.235491 -0.255912
v -0.175020 -1.176942 -0.592378
v -0.999459 -0.723872 -0.269117
v -1.176469 -0.382263 -0.474400
v -0.783510 -0.589145 -0.572272
v -0.999459 -0.211632 -0.625562
v -0.562541 -1.001605 -0.255912
v -0.398590 -0.807311 -0.661796
v -0.439225 -0.250403 -0.839301
v -1.391071 0.238682 -0.255912
v -1.332502 0.165812 -0.557491
v -1.262325 0.533401 -0.255912
v -0.972083 0.928474 -0.255912
v -1.064406 0.352989 -0.690900
v -0.856083 0.928474 -0.663199
v -0.439225 0.339035 -0.934638
v -0.439225 0.928474 -0.837197
v -0.738421 1.227866 -0.255912
v -0.738985 1.228394 -0.570184
v -0.397863 1.546417 -0.277519
v -0.173809 1.844857 -0.095445
v -0.439225 1.331731 -0.634214
v -0.120588 -0.031530 1.218504
v 0.336754 -1.171981 0.662894
v 0.393171 -1.756086 0.075060
v 0.168483 -1.395846 0.334283
v 0.571237 -1.171981 0.662894
v 0.739652 -1.764674 0.086938
v 0.756491 -1.392788 0.402910
v 0.144250 -0.881722 0.843741
v 0.105621 -0.236967 1.140520
v -0.056205 -1.106122 0.593507
v 0.641786 -0.839842 0.758101
v 0.614197 -0.250403 0.834356
v 0.936505 -0.839842 0.525785
v 0.905681 -0.254810 0.338566
v 1.065509 -1.746145 0.066729
v 1.142158 -1.429280 0.172028
v 1.147792 -0.839842 0.231065
v 1.073022 -0.454228 0.145445
v -0.120588 0.065807 1.218504
v 0.105621 0.292986 1.123322
v 0.150214 0.928474 0.999173
v 0.567403 0.339035 0.812912
v 0.554418 0.928474 0.770844
v 0.791930 0.339035 0.333527
v 0.787406 0.928474 0.333527
v 0.150214 1.409238 0.777288
v 0.150214 1.703957 0.487320
v 0.150214 1.910591 0.192601
v 0.517138 1.364284 0.708475
v 0.674296 1.543623 0.362725
v 0.594447 1.911018 0.185710
v 0.335741 -1.818160 -0.255912
v 0.041022 -1.530210 -0.255912
v 0.351106 -1.817461 -0.666622
v 0.152861 -1.395765 -0.753596
v 0.739652 -1.897097 -0.255912
v 0.739652 -1.856422 -0.703284
v 0.739652 -1.429280 -0.946327
v 0.150214 -0.839842 -0.955392
v 0.150214 -0.250403 -1.027321
v 0.987439 -0.070595 -0.255912
v 0.685154 -0.780898 -1.057068
v 0.735674 -0.274218 -0.897236
v 1.114017 -1.802936 -0.255912
v 1.268821 -1.429280 -0.255912
v 1.109428 -1.807102 -0.638177
v 1.161034 -1.429280 -0.723932
v 1.269856 -0.839842 -0.255912
v 1.115052 -0.365314 -0.255912
v 1.156435 -0.839842 -0.754282
v 1.103295 -0.396272 -0.678643
v 0.150214 0.339035 -0.990032
v 0.150214 0.928474 -0.881508
v 0.912200 0.339035 -0.255912
v 0.893359 0.928474 -0.255912
v 0.687674 0.339035 -0.776215
v 0.660371 0.928474 -0.707510
v -0.026175 1.755668 -0.488404
v 0.162268 1.904973 -0.277519
v 0.162268 1.542678 -0.663441
v 0.366783 1.835921 -0.565156
v 0.842074 1.517912 -0.255912
v 0.613129 1.903888 -0.255912
v 0.609525 1.517912 -0.622724
v 0.519680 1.835921 -0.565156
vt 0.792695 0.594735
vt 0.770042 0.560028
vt 0.826387 0.535560
vt 0.853675 0.595838
vt 0.745666 0.650396
vt 0.689268 0.605613
vt 0.816775 0.689693
vt 0.900681 0.552656
vt 0.884261 0.523348
vt 0.247541 0.750702
vt 0.228322 0.810563
vt 0.150838 0.829788
vt 0.169624 0.731299
vt 0.718036 0.292444
vt 0.782145 0.260090
vt 0.800366 0.364832
vt 0.742595 0.351724
vt 0.247541 0.859701
vt 0.173969 0.871151
vt 0.221351 0.926965
vt 0.142868 0.933950
vt 0.109946 0.877155
vt 0.066392 0.321277
vt 0.066616 0.259346
vt 0.107817 0.239629
vt 0.121486 0.306092
vt 0.200164 0.267180
vt 0.174261 0.354281
vt 0.117910 0.382341
vt 0.024087 0.226234
vt 0.000000 0.291778
vt 0.063984 0.192818
vt 0.151515 0.430260
vt 0.188287 0.420194
vt 0.070029 0.743856
vt 0.065515 0.817732
vt 0.000000 0.820620
vt 0.001863 0.725490
vt 0.172635 0.077027
vt 0.243357 0.093014
vt 0.227872 0.178487
vt 0.123411 0.152161
vt 0.330846 0.735151
vt 0.392963 0.746217
vt 0.385064 0.795107
vt 0.335184 0.796024
vt 0.025576 0.684037
vt 0.073288 0.693966
vt 0.062078 0.874531
vt 0.011631 0.871479
vt 0.194528 0.039570
vt 0.245308 0.036817
vt 0.815025 0.859218
vt 0.787839 0.905076
vt 0.731818 0.868464
vt 0.785231 0.794486
vt 0.720406 0.785202
vt 0.702965 0.816407
vt 0.434895 0.180958
vt 0.481727 0.265178
vt 0.406934 0.280319
vt 0.401593 0.188009
vt 0.837914 0.082696
vt 0.918038 0.077262
vt 0.931971 0.161369
vt 0.850940 0.166066
vt 0.765897 0.948659
vt 0.736437 0.935571
vt 0.478998 0.172292
vt 0.504524 0.228963
vt 0.701168 0.733197
vt 0.757450 0.733533
vt 0.920145 0.007473
vt 0.965468 0.077968
vt 0.896828 0.034665
vt 0.859856 0.041802
vt 0.980758 0.000000
vt 1.000000 0.083813
vt 0.501009 0.356021
vt 0.518122 0.446143
vt 0.451762 0.458862
vt 0.427914 0.369910
vt 0.867732 0.244502
vt 0.943279 0.250130
vt 0.960003 0.338721
vt 0.895327 0.341513
vt 0.921910 0.476562
vt 1.000000 0.442286
vt 0.999733 0.505970
vt 0.929647 0.519142
vt 0.968133 0.406367
vt 0.911412 0.421262
vt 0.532609 0.541205
vt 0.474645 0.523797
vt 0.867318 0.874723
vt 0.881020 0.820070
vt 0.938409 0.857554
vt 0.923547 0.901327
vt 0.237416 0.464696
vt 0.332426 0.493025
vt 0.301318 0.560204
vt 0.244790 0.537448
vt 0.900882 0.957319
vt 0.839528 0.932706
vt 0.296486 0.290755
vt 0.371195 0.322984
vt 0.355473 0.392895
vt 0.270263 0.379057
vt 0.588618 0.000000
vt 0.612500 0.055258
vt 0.537409 0.068253
vt 0.528359 0.011395
vt 0.634403 0.144525
vt 0.635912 0.214561
vt 0.569960 0.231180
vt 0.554459 0.158366
vt 0.378664 0.515840
vt 0.351951 0.570764
vt 0.862872 0.999986
vt 0.808995 0.977480
vt 0.678134 0.227698
vt 0.689268 0.145822
vt 0.579946 0.276457
vt 0.401593 0.428024
vt 0.677333 0.324945
vt 0.683863 0.417041
vt 0.609937 0.429358
vt 0.592660 0.339212
vt 0.330568 0.118991
vt 0.392586 0.145021
vt 0.379188 0.232211
vt 0.315785 0.204278
vt 0.359422 0.671902
vt 0.322339 0.639656
vt 0.370062 0.609341
vt 0.392963 0.648329
vt 0.688124 0.509631
vt 0.689268 0.560025
vt 0.641366 0.578965
vt 0.627583 0.519561
vt 0.374872 0.000000
vt 0.396765 0.006930
vt 0.401593 0.057032
vt 0.341042 0.032420
vt 0.319541 0.570764
vt 0.370267 0.585945
vt 0.750351 0.121880
vt 0.765585 0.183993
vt 0.832333 0.733960
vt 0.802859 0.203417
vt 0.821432 0.199831
vt 0.825962 0.469304
vt 0.876878 0.523348
vt 0.422362 0.592525
vt 0.461372 0.598685
vt 0.461372 0.699093
vt 0.401593 0.655956
vt 0.842902 0.423706
vt 0.824503 0.214106
vt 0.805930 0.217692
vt 0.895579 0.763175
vt 0.934023 0.792537
vt 0.294534 0.693295
vt 0.153749 0.573423
vt 0.159798 0.625643
vt 0.075947 0.627205
vt 0.110414 0.570764
vt 0.937241 0.639180
vt 0.910825 0.711419
vt 0.938409 0.568826
vt 0.471318 0.080525
vt 0.479638 0.029249
vt 0.111528 1.000000
vt 0.080646 0.998105
vt 0.054838 0.940221
vt 0.142498 0.689248
vt 0.572090 0.592525
vt 0.249219 0.574817
vt 0.247541 0.642826
vt 0.245998 0.661843
vt 0.206823 0.641890
vt 0.689268 0.210032
vt 0.027207 0.661809
vt 0.069685 0.169897
vt 0.263987 0.693900
vn -0.6727 -0.3709 0.6402
vn -0.4262 -0.3920 0.8153
vn -0.3605 -0.7751 0.5189
vn -0.6399 -0.3401 0.6891
vn -0.8193 0.3981 0.4126
vn -0.5245 0.3042 0.7952
vn -0.6817 0.5742 0.4533
vn -0.6711 0.5749 0.4681
vn -0.7421 0.6045 0.2896
vn -0.4509 -0.5098 -0.7327
vn -0.3668 -0.3168 -0.8747
vn -0.4641 -0.6821 -0.5652
vn -0.5866 -0.4889 -0.6457
vn -0.5916 -0.3847 -0.7085
vn -0.6571 -0.6145 -0.4366
vn -0.8127 0.4287 -0.3947
vn -0.3652 0.1638 -0.9164
vn -0.5570 0.8006 -0.2207
vn -0.7510 0.4986 -0.4330
vn -0.8459 0.5160 -0.1349
vn -0.3402 0.4124 -0.8451
vn -0.0704 -0.6285 0.7746
vn -0.0472 -0.7977 0.6013
vn 0.7755 0.0975 0.6238
vn 0.3573 -0.2526 0.8992
vn 0.2705 -0.5288 0.8045
vn 0.8120 0.2381 0.5329
vn -0.2364 -0.6895 0.6846
vn 0.5892 -0.3466 0.7299
vn 0.1289 -0.3808 0.9156
vn 0.6368 -0.2211 0.7386
vn 0.8944 0.0292 0.4464
vn 0.5216 0.1015 0.8471
vn 0.2061 0.6382 0.7417
vn 0.3014 0.7272 0.6168
vn 0.8731 0.1397 0.4670
vn 0.3588 0.2898 0.8873
vn -0.7938 -0.5755 -0.1968
vn -0.2379 -0.3997 -0.8852
vn -0.1492 -0.9875 -0.0503
vn 0.0228 0.0789 -0.9966
vn 0.9530 -0.2760 -0.1246
vn 0.9634 0.2296 -0.1386
vn 0.3372 -0.3744 -0.8638
vn 0.1929 -0.9802 -0.0442
vn 0.5481 0.2026 -0.8115
vn 0.6886 0.6533 -0.3146
vn -0.2401 -0.2545 -0.9368
vn 0.9748 -0.0028 -0.2231
vn 0.5020 -0.0742 -0.8617
vn 0.9031 0.0601 -0.4251
vn 0.3434 0.1474 -0.9276
vn -0.2719 0.7016 -0.6586
vn 0.8086 0.4013 -0.4303
vn 0.0754 0.2331 -0.9695
vn 0.0097 0.9750 -0.2220
vn 0.8639 0.1102 -0.4914
vn 0.2182 0.2447 -0.9447
vn -0.1100 -0.4584 0.8819
vn -0.3075 -0.7065 0.6374
vn -0.4087 -0.7817 0.4711
vn -0.0468 -0.4221 0.9053
vn -0.0789 0.2920 0.9531
vn -0.4359 0.6682 0.6030
vn -0.3729 0.7738 0.5120
vn -0.1607 0.3994 0.9026
vn 0.0313 0.3456 0.9379
vn -0.6426 -0.6967 -0.3188
vn -0.3861 -0.2092 -0.8984
vn -0.5087 -0.3543 -0.7847
vn -0.0830 0.1715 -0.9817
vn -0.5017 0.7837 -0.3663
vn -0.4330 0.6401 -0.6346
vn -0.1240 0.3807 -0.9164
vn -0.9962 -0.0824 -0.0279
vn -0.4802 -0.8765 -0.0346
vn -0.6509 -0.7585 0.0310
vn -0.2869 -0.9565 -0.0524
vn -0.6911 -0.6660 0.2807
vn -0.1155 -0.9517 0.2845
vn 0.9094 -0.3411 0.2380
vn 0.9413 0.2712 0.2010
vn 0.9648 -0.0186 0.2623
vn 0.1604 -0.9463 0.2807
vn 0.8727 0.4322 0.2270
vn -0.8185 0.5259 0.2314
vn -0.8193 0.5723 0.0341
vn -0.6624 0.7472 0.0547
vn -0.8300 0.5447 0.1200
vn -0.8087 0.5570 0.1889
vn 0.9819 0.0195 0.1884
vn 0.9028 0.4044 0.1462
vn 0.0010 0.9999 -0.0139
vn 0.9680 0.1269 0.2166
vn -0.7634 0.1528 0.6275
vn -0.5619 -0.0317 0.8266
vn -0.4253 -0.0561 0.9033
vn -0.7387 0.2331 0.6324
vn -0.9700 0.0617 -0.2350
vn -0.3618 -0.1485 -0.9204
vn -0.3217 -0.1144 -0.9399
vn 0.8767 0.1293 0.4633
vn 0.5344 0.0515 0.8437
vn 0.3563 0.0256 0.9340
vn 0.9040 0.1560 -0.3980
vn 0.2927 0.1363 -0.9464
vn -0.9961 0.0840 -0.0256
vn 0.9641 0.1825 0.1929
vn 0.0000 0.0000 1.0000
vn -0.2020 -0.0482 -0.9782
vn -0.5372 -0.8255 0.1729
vn -0.1888 0.9820 -0.0118
usemtl None
s off
f 5/1/1 6/2/1 8/3/1 7/4/1
f 5/1/2 9/5/2 10/6/2 6/2/2
f 5/1/3 7/4/3 11/7/3 9/5/3
f 1/8/4 7/4/4 8/3/4 2/9/4
f 14/10/5 15/11/5 17/12/5 16/13/5
f 14/14/6 18/15/6 19/16/6 15/17/6
f 19/18/7 20/19/7 17/12/7 15/11/7
f 19/18/8 22/20/8 23/21/8 20/19/8
f 17/12/9 20/19/9 23/21/9 21/22/9
f 30/23/10 31/24/10 33/25/10 32/26/10
f 33/25/11 36/27/11 35/28/11 32/26/11
f 30/23/12 32/26/12 35/28/12 34/29/12
f 26/30/13 31/24/13 30/23/13 25/31/13
f 26/30/14 27/32/14 33/25/14 31/24/14
f 28/33/15 34/29/15 35/28/15 29/34/15
f 39/35/16 40/36/16 42/37/16 41/38/16
f 42/39/17 44/40/17 43/41/17 41/42/17
f 47/43/18 49/44/18 46/45/18 45/46/18
f 39/35/19 41/38/19 38/47/19 37/48/19
f 40/36/20 45/49/20 46/50/20 42/37/20
f 46/51/21 49/52/21 44/40/21 42/39/21
f 52/53/22 55/54/22 56/55/22 53/56/22
f 51/57/23 53/56/23 56/55/23 54/58/23
f 62/59/24 63/60/24 61/61/24 60/62/24
f 57/63/25 60/64/25 61/65/25 58/66/25
f 55/54/26 64/67/26 65/68/26 56/55/26
f 62/59/27 66/69/27 67/70/27 63/60/27
f 51/57/28 57/71/28 59/72/28 53/56/28
f 56/73/29 62/74/29 60/64/29 54/75/29
f 51/76/30 54/75/30 60/64/30 57/63/30
f 56/73/31 65/77/31 66/78/31 62/74/31
f 73/79/32 74/80/32 72/81/32 71/82/32
f 69/83/33 71/84/33 72/85/33 70/86/33
f 76/87/34 79/88/34 80/89/34 77/90/34
f 78/91/35 79/88/35 76/87/35 75/92/35
f 74/80/36 79/93/36 78/94/36 72/81/36
f 70/86/37 72/85/37 78/91/37 75/92/37
f 81/95/38 82/96/38 84/97/38 83/98/38
f 84/99/39 87/100/39 86/101/39 83/102/39
f 81/95/40 83/98/40 86/103/40 85/104/40
f 89/105/41 92/106/41 91/107/41 88/108/41
f 95/109/42 96/110/42 94/111/42 93/112/42
f 99/113/43 100/114/43 98/115/43 97/116/43
f 87/100/44 96/117/44 95/118/44 86/101/44
f 85/104/45 86/103/45 95/119/45 93/120/45
f 92/121/46 100/114/46 99/113/46 91/122/46
f 98/115/47 100/114/47 92/121/47 90/123/47
f 88/108/48 91/107/48 87/100/48 84/99/48
f 96/110/49 99/113/49 97/116/49 94/111/49
f 91/107/50 99/124/50 96/117/50 87/100/50
f 105/125/51 106/126/51 104/127/51 103/128/51
f 102/129/52 106/130/52 105/131/52 101/132/52
f 107/133/53 108/134/53 110/135/53 109/136/53
f 113/137/54 114/138/54 112/139/54 111/140/54
f 110/141/55 114/142/55 113/143/55 109/144/55
f 112/145/56 114/146/56 110/135/56 108/134/56
f 106/126/57 113/137/57 111/140/57 104/127/57
f 109/144/58 113/143/58 106/130/58 102/129/58
f 9/147/59 57/63/59 58/66/59 10/148/59
f 9/5/60 11/7/60 59/72/60 57/71/60
f 4/149/61 53/56/61 59/72/61 11/7/61
f 3/150/62 10/148/62 58/66/62 50/151/62
f 18/15/63 69/83/63 70/86/63 19/16/63
f 23/152/64 76/87/64 77/90/64 24/153/64
f 75/154/65 76/155/65 23/156/65 22/157/65
f 19/16/66 70/86/66 75/92/66 22/158/66
f 68/159/67 69/83/67 18/15/67 13/160/67
f 28/161/68 29/162/68 84/97/68 82/96/68
f 36/27/69 89/105/69 88/108/69 35/28/69
f 35/28/70 88/108/70 84/99/70 29/34/70
f 44/40/71 102/129/71 101/132/71 43/41/71
f 48/163/72 108/134/72 107/133/72 47/43/72
f 107/133/73 109/136/73 49/44/73 47/43/73
f 49/52/74 109/144/74 102/129/74 44/40/74
f 1/164/75 2/165/75 26/166/75 25/167/75
f 7/4/76 30/168/76 34/169/76 11/7/76
f 4/149/77 11/7/77 34/169/77 28/161/77
f 1/8/78 25/170/78 30/168/78 7/4/78
f 52/53/79 53/56/79 82/96/79 81/95/79
f 52/53/80 81/95/80 85/104/80 55/54/80
f 93/112/81 94/111/81 65/171/81 64/172/81
f 97/116/82 98/115/82 67/70/82 66/69/82
f 94/111/83 97/116/83 66/69/83 65/171/83
f 55/54/84 85/104/84 93/120/84 64/67/84
f 67/70/85 98/115/85 90/123/85 63/60/85
f 16/13/86 17/12/86 40/36/86 39/35/86
f 23/21/87 24/173/87 48/174/87 47/175/87
f 23/21/88 47/175/88 45/49/88 21/22/88
f 17/12/89 21/22/89 45/49/89 40/36/89
f 16/13/90 39/35/90 37/48/90 12/176/90
f 103/128/91 104/127/91 74/80/91 73/79/91
f 111/140/92 112/139/92 80/177/92 79/93/92
f 80/178/93 112/145/93 108/134/93 77/179/93
f 104/127/94 111/140/94 79/93/94 74/80/94
f 6/180/95 14/10/95 16/13/95 8/181/95
f 6/182/96 10/148/96 18/15/96 14/14/96
f 3/150/97 13/160/97 18/15/97 10/148/97
f 2/165/98 8/181/98 16/13/98 12/176/98
f 26/166/99 37/48/99 38/47/99 27/183/99
f 41/42/100 43/41/100 36/27/100 33/25/100
f 38/184/101 41/42/101 33/25/101 27/32/101
f 63/60/102 73/79/102 71/82/102 61/61/102
f 58/66/103 61/65/103 71/84/103 69/83/103
f 58/66/104 69/83/104 68/159/104 50/151/104
f 92/121/105 105/125/105 103/128/105 90/123/105
f 101/132/106 105/131/106 92/106/106 89/105/106
f 2/165/107 12/176/107 37/48/107 26/166/107
f 90/123/108 103/128/108 73/79/108 63/60/108
f 3/150/109 50/151/109 68/159/109 13/160/109
f 43/41/110 101/132/110 89/105/110 36/27/110
f 4/149/111 28/161/111 82/96/111 53/56/111
f 77/179/112 108/134/112 48/163/112 24/185/112
