# Blender v2.90.0 OBJ File: 'piedras3.blend'
# www.blender.org
mtllib modeloPiedras8.mtl
v 0.028542 0.167036 -0.663653
v -0.023670 0.033553 -0.544127
v 0.056629 0.469657 -0.703877
v 0.032600 0.618285 -0.638326
v 0.006280 0.264539 -0.642179
v -0.076390 0.062122 -0.451257
v -0.075813 0.363491 -0.443700
v -0.117322 0.150879 -0.338256
v 0.173702 0.348961 -0.815400
v 0.237654 0.326156 -0.715752
v 0.130110 -0.070284 -0.654423
v 0.087103 -0.211417 -0.591270
v 0.120970 0.111129 -0.758441
v 0.020806 -0.125397 -0.589966
v 0.152468 -0.066785 -0.640629
v 0.151685 -0.204878 -0.570210
v 0.230732 0.086312 -0.670785
v 0.184060 -0.193656 -0.530523
v 0.201083 0.713757 -0.784004
v 0.183478 0.557517 -0.832673
v 0.176864 0.930932 -0.733268
v 0.083833 0.720719 -0.693056
v 0.236108 0.668717 -0.706425
v 0.259507 0.502021 -0.685011
v 0.255503 0.782950 -0.646955
v 0.269959 0.683257 -0.555953
v 0.067786 0.301952 -0.708225
v -0.108629 -0.066939 -0.361835
v -0.123494 0.286867 -0.279655
v -0.150965 0.097672 -0.233465
v 0.259418 0.274152 -0.576861
v 0.028331 -0.411858 -0.464211
v -0.067949 -0.417742 -0.372120
v -0.118256 -0.603192 -0.189693
v 0.067637 -0.528600 -0.406929
v 0.021364 -0.660388 -0.284602
v 0.073622 -0.542950 -0.411852
v -0.061363 -0.749239 -0.176760
v -0.108067 -0.901046 0.033120
v -0.154029 -0.283609 -0.207107
v -0.185510 -0.516502 -0.033794
v -0.200502 -0.167165 -0.058441
v -0.232069 -0.383514 0.100217
v -0.197633 -0.645325 0.063241
v -0.244010 -0.510972 0.195965
v -0.190650 -0.875888 0.202118
v -0.209583 -0.901453 0.333525
v -0.263942 -0.708928 0.365922
v -0.243155 -0.849012 0.408694
v -0.038849 0.601621 -0.453748
v -0.082964 0.474321 -0.370379
v 0.145163 0.996710 -0.638244
v -0.011913 0.747433 -0.454138
v 0.096223 1.006226 -0.419346
v -0.058405 0.742528 -0.218906
v 0.215143 0.996897 -0.520629
v 0.250987 0.783578 -0.467042
v 0.134415 1.067966 -0.395117
v 0.083626 1.057345 -0.243062
v -0.116576 0.440178 -0.259824
v -0.177559 0.203619 -0.085218
v -0.118785 0.577226 -0.092662
v -0.180082 0.336155 0.074049
v -0.191618 0.300609 0.183709
v -0.044172 0.772298 -0.102942
v 0.028043 0.934189 -0.080864
v -0.100552 0.630377 -0.005205
v -0.145537 0.485019 0.085573
v -0.048434 0.775153 0.090429
v -0.143786 0.505955 0.284216
v -0.229093 -0.063174 0.118159
v -0.245670 -0.251113 0.183756
v -0.224219 0.085550 0.171235
v -0.246325 -0.116017 0.244635
v -0.264847 -0.306154 0.298323
v -0.241477 0.043728 0.283394
v -0.267428 -0.201698 0.461832
v -0.284180 -0.536829 0.462615
v -0.276806 -0.399839 0.527875
v -0.217660 0.149294 0.410552
v -0.246103 -0.047100 0.503724
v 0.243852 0.068510 -0.496943
v 0.216004 -0.155551 -0.430273
v 0.271050 0.419084 -0.516209
v 0.272991 0.549805 -0.447166
v 0.269065 0.227662 -0.456899
v 0.235904 -0.022763 -0.272468
v 0.264430 0.330306 -0.293667
v 0.244357 0.136890 -0.237947
v 0.220827 -0.063320 -0.162537
v 0.245477 0.274480 -0.178592
v 0.226548 0.084255 -0.110269
v 0.102899 -0.542410 -0.289544
v 0.079980 -0.606176 -0.247407
v 0.161058 -0.438386 -0.262565
v 0.059779 -0.719342 -0.121910
v 0.149541 -0.450998 -0.087344
v 0.103191 -0.611948 0.009998
v -0.048416 -0.966636 0.099597
v 0.040102 -0.770666 0.119578
v 0.189377 -0.265018 -0.181336
v 0.182916 -0.305781 -0.071502
v 0.116932 -0.555656 0.101613
v 0.172605 -0.181843 0.094275
v 0.098524 -0.438082 0.291449
v -0.105165 -1.040068 0.255308
v -0.166314 -1.056637 0.397021
v -0.262375 -0.750856 0.492748
v -0.242425 -0.966839 0.553591
v -0.005282 -0.864970 0.327153
v -0.092420 -0.982808 0.431648
v -0.002754 -0.722047 0.471797
v -0.139779 -0.972699 0.591813
v 0.053485 -0.482990 0.415763
v 0.032798 -0.541347 0.453961
v 0.223632 0.872893 -0.378153
v 0.251006 0.733402 -0.344600
v 0.207362 0.901087 -0.339931
v 0.194728 0.878653 -0.198401
v 0.242136 0.536812 -0.190194
v 0.197435 0.671566 -0.057084
v 0.230564 0.408725 -0.093722
v 0.197275 0.188230 0.068156
v 0.190194 0.546290 0.039666
v 0.157509 0.308185 0.215914
v 0.110764 0.897616 -0.036266
v 0.046409 0.806388 0.182513
v -0.075395 0.587241 0.382818
v -0.087372 0.518907 0.420372
v 0.110496 0.622405 0.197566
v 0.075061 0.469273 0.353070
v -0.021643 0.438569 0.463861
v -0.264186 -0.249628 0.584984
v 0.145983 -0.073232 0.242736
v 0.107603 -0.302822 0.316904
v 0.115106 0.113889 0.353451
v -0.279377 -0.664862 0.564336
v -0.265716 -0.836364 0.678525
v -0.270112 -0.484421 0.700890
v -0.258221 -0.655705 0.734823
v -0.050620 -0.670288 0.645477
v -0.172584 -0.934458 0.723186
v -0.192478 -0.574967 0.889157
v -0.198261 -0.709754 0.810957
v -0.186970 0.199090 0.553703
v -0.230098 -0.064530 0.677348
v -0.163375 0.236974 0.589726
v -0.170643 0.079165 0.659300
v -0.014960 0.177857 0.600030
v -0.117100 -0.055742 0.772204
v -0.089403 0.241967 0.613935
v -0.142644 0.081749 0.679554
v -0.237045 -0.281708 0.759987
v -0.196964 -0.344987 0.881154
v 0.113118 -0.123755 0.347631
v 0.075731 -0.341090 0.426311
v 0.070384 -0.006313 0.479006
v -0.001597 -0.214315 0.636590
v 0.001440 -0.536418 0.564892
v -0.044327 -0.430067 0.698383
v 0.032049 0.026170 0.540886
v -0.033206 -0.156753 0.676272
v -0.079539 -0.297517 0.741545
vt 0.935500 0.127166
vt 0.920110 0.190933
vt 0.865119 0.188492
vt 0.852224 0.132893
vt 0.044650 0.820436
vt 0.057891 0.786927
vt 0.097751 0.814867
vt 0.062692 0.877070
vt 0.000000 0.840719
vt 0.005193 0.765901
vt 0.023152 0.775007
vt 0.032473 0.815497
vt 0.412805 0.579283
vt 0.414575 0.535084
vt 0.471590 0.599831
vt 0.438749 0.628105
vt 0.370075 0.494448
vt 0.350060 0.465235
vt 0.429710 0.432009
vt 0.413166 0.471921
vt 0.438900 0.487415
vt 0.484494 0.454432
vt 0.377174 0.648551
vt 0.383939 0.606355
vt 0.111739 0.887259
vt 0.128412 0.847471
vt 0.114320 0.953182
vt 0.132885 0.977260
vt 0.112912 1.000000
vt 0.055774 0.973560
vt 0.843003 0.213472
vt 0.815673 0.171278
vt 0.919674 0.228329
vt 0.512614 0.404877
vt 0.472046 0.393226
vt 0.961968 0.145263
vt 0.953839 0.186463
vt 0.907948 0.081824
vt 0.855071 0.061214
vt 0.049241 0.928392
vt 0.010649 0.897456
vt 0.099549 0.916973
vt 0.425310 0.371834
vt 0.494379 0.334550
vt 0.128095 0.907590
vt 1.000000 0.215029
vt 0.045137 0.692891
vt 0.058646 0.652094
vt 0.094345 0.628248
vt 0.041346 0.689777
vt 0.122103 0.731069
vt 0.132885 0.669713
vt 0.074223 0.732830
vt 0.916464 0.292965
vt 0.908850 0.365742
vt 0.837445 0.357615
vt 0.843464 0.290698
vt 0.903709 0.406836
vt 0.832443 0.398234
vt 0.903954 0.477665
vt 0.865042 0.503647
vt 0.830511 0.502568
vt 0.817326 0.464906
vt 0.995166 0.300561
vt 0.975929 0.363343
vt 0.997376 0.401222
vt 0.960838 0.462645
vt 0.762180 0.000019
vt 0.766617 0.062946
vt 0.689361 0.099895
vt 0.687800 0.030948
vt 0.615875 0.050485
vt 0.662171 0.027605
vt 0.454035 0.669959
vt 0.465136 0.748069
vt 0.446666 0.771410
vt 0.406039 0.723462
vt 0.774857 0.145366
vt 0.770472 0.215574
vt 0.685950 0.217250
vt 0.686547 0.147583
vt 0.646314 0.194044
vt 0.571632 0.225194
vt 0.572348 0.149263
vt 0.642455 0.154715
vt 0.640674 0.116195
vt 0.590811 0.096779
vt 0.656133 0.242244
vt 0.803129 0.123124
vt 0.800649 0.088561
vt 0.730120 0.328648
vt 0.754135 0.373420
vt 0.674196 0.381376
vt 0.681447 0.304561
vt 0.780716 0.344625
vt 0.761563 0.297953
vt 0.710226 0.278570
vt 0.623918 0.360823
vt 0.611487 0.309031
vt 0.748029 0.445617
vt 0.694693 0.430998
vt 0.307572 0.365511
vt 0.319556 0.316763
vt 0.359411 0.282086
vt 0.386085 0.352931
vt 0.274499 0.344580
vt 0.281042 0.295717
vt 0.325455 0.265070
vt 0.443112 0.261982
vt 0.429594 0.318631
vt 0.329825 0.426907
vt 0.377549 0.401337
vt 0.430186 0.184622
vt 0.431782 0.109226
vt 0.459429 0.144159
vt 0.462975 0.161969
vt 0.366424 0.169640
vt 0.359803 0.125382
vt 0.251240 0.219722
vt 0.224609 0.146375
vt 0.314365 0.132252
vt 0.333623 0.202423
vt 0.211532 0.067568
vt 0.219570 0.000354
vt 0.277785 0.009293
vt 0.290163 0.044337
vt 0.179007 0.840994
vt 0.132885 0.774209
vt 0.157569 0.765243
vt 0.195428 0.797974
vt 0.166905 0.709442
vt 0.229778 0.732007
vt 0.368344 0.219420
vt 0.349770 0.080689
vt 0.355642 0.008000
vt 0.397718 0.036050
vt 0.188770 0.127160
vt 0.185637 0.110888
vt 0.238355 0.500482
vt 0.189158 0.485520
vt 0.263056 0.462266
vt 0.255940 0.496678
vt 0.152491 0.392228
vt 0.126901 0.324800
vt 0.198900 0.307396
vt 0.221794 0.369767
vt 0.236777 0.406112
vt 0.168455 0.427911
vt 0.288565 0.724943
vt 0.377174 0.690539
vt 0.377174 0.743981
vt 0.328880 0.789723
vt 0.288776 0.706265
vt 0.332761 0.675670
vt 0.087589 0.398508
vt 0.056430 0.352160
vt 0.069764 0.441706
vt 0.132308 0.478243
vt 0.739407 0.489402
vt 0.734924 0.545020
vt 0.675290 0.520220
vt 0.651373 0.479025
vt 0.204298 0.535084
vt 0.202356 0.588160
vt 0.174311 0.657774
vt 0.142328 0.627642
vt 0.654278 0.551477
vt 0.597015 0.539387
vt 0.250604 0.611968
vt 0.242277 0.665376
vt 0.547279 0.328144
vt 0.564949 0.396824
vt 0.534408 0.372390
vt 0.524083 0.329847
vt 0.317603 0.618204
vt 0.302966 0.581110
vt 0.331637 0.535084
vt 0.361876 0.599913
vt 0.286577 0.587230
vt 0.275923 0.629589
vt 0.264606 0.562409
vt 0.085793 0.233361
vt 0.066269 0.173908
vt 0.159608 0.159460
vt 0.150840 0.215439
vt 0.179534 0.234542
vt 0.192105 0.176027
vt 0.109945 0.270098
vt 0.145513 0.104227
vt 0.081747 0.119414
vt 0.046717 0.071778
vt 0.141461 0.067348
vt 0.000000 0.200561
vt 0.044858 0.184308
vt 0.060618 0.236387
vt 0.018027 0.267150
vt 0.550545 0.492077
vt 0.583478 0.453421
vt 0.518555 0.425322
vt 0.640855 0.412959
vt 0.047215 0.146919
vt 0.588902 0.620836
vt 0.543150 0.587445
vt 0.540240 0.551567
vt 0.588902 0.551477
vt 0.512614 0.602638
vt 0.559011 0.661751
vt 0.490669 0.259789
vt 0.508991 0.172950
vt 0.488098 0.133739
vt 0.512614 0.170004
vt 0.029098 0.648437
vt 0.029615 0.607064
vt 0.250604 0.839227
vt 0.243467 0.797598
vt 0.804870 0.551477
vt 0.781557 0.495754
vt 0.871988 0.550630
vt 0.066607 0.535084
vt 0.104094 0.568888
vt 0.172666 0.879416
vt 0.220846 0.897616
vt 0.291100 0.535084
vt 0.301698 0.482260
vt 0.462426 0.820933
vt 0.383674 0.825118
vt 0.389232 0.776495
vt 0.380994 0.759847
vt 0.250604 0.733821
vt 0.273466 0.810170
vt 0.345103 0.838968
vt 0.294645 0.863041
vt 0.471590 0.856746
vt 0.419354 0.878682
vt 0.806774 0.000000
vt 0.847181 0.037460
vt 0.166385 0.000000
vt 0.512614 0.234730
vt 0.515334 0.253409
vn -0.9277 0.0111 -0.3731
vn -0.2982 -0.4144 -0.8599
vn 0.6494 -0.3997 -0.6469
vn 0.3768 -0.4471 -0.8112
vn 0.5134 -0.4087 -0.7545
vn -0.5935 0.1972 -0.7803
vn 0.9737 0.0441 -0.2233
vn 0.9047 0.0519 -0.4229
vn 0.8883 0.1565 -0.4318
vn -0.8004 -0.1265 -0.5860
vn -0.7681 0.1104 -0.6308
vn -0.9636 0.0678 -0.2588
vn -0.9462 -0.0027 -0.3235
vn 0.8617 -0.0532 -0.5046
vn -0.8749 -0.0886 -0.4760
vn -0.9004 0.0717 -0.4291
vn 0.6828 -0.2330 -0.6925
vn -0.7071 -0.0185 -0.7069
vn 0.9806 -0.0741 -0.1814
vn -0.7093 -0.0289 -0.7043
vn -0.7233 -0.0176 -0.6903
vn -0.8769 -0.1081 -0.4683
vn 0.1809 -0.7587 -0.6259
vn -0.6368 -0.4008 -0.6587
vn -0.5578 -0.4668 -0.6862
vn -0.9627 -0.0599 -0.2639
vn -0.9654 -0.0926 -0.2436
vn -0.9494 -0.2325 -0.2111
vn -0.9257 -0.1231 -0.3576
vn -0.9021 -0.2788 -0.3295
vn -0.9598 -0.1444 -0.2406
vn -0.8827 -0.2633 -0.3892
vn -0.8960 0.4002 -0.1924
vn -0.8862 0.4242 -0.1863
vn -0.1679 0.9440 -0.2841
vn -0.9787 0.1512 -0.1390
vn -0.9483 0.3175 -0.0052
vn -0.9121 0.4099 0.0020
vn -0.9661 0.2580 -0.0115
vn -0.9724 0.2324 -0.0198
vn -0.9601 0.2098 -0.1851
vn -0.9229 0.3842 -0.0260
vn -0.9339 0.3574 0.0034
vn -0.9556 0.1761 -0.2364
vn -0.9954 0.0634 -0.0717
vn -0.9906 0.0521 -0.1263
vn -0.9909 0.0661 -0.1170
vn -0.9885 0.1459 0.0394
vn -0.9983 0.0498 -0.0317
vn 0.9939 -0.0754 0.0809
vn 0.9906 -0.0610 0.1227
vn 0.9913 -0.0761 0.1074
vn 0.9901 -0.1386 -0.0213
vn 0.9996 -0.0129 0.0246
vn 0.8650 -0.4398 -0.2417
vn 0.9484 -0.3172 -0.0006
vn 0.9743 -0.1417 0.1749
vn 0.8846 -0.3514 0.3065
vn 0.7827 -0.6064 0.1403
vn 0.1997 -0.9095 0.3647
vn 0.9693 -0.2438 0.0322
vn 0.9800 -0.1974 0.0249
vn 0.8873 -0.4597 0.0372
vn 0.9187 -0.3950 -0.0091
vn 0.9535 -0.2141 0.2120
vn 0.9416 -0.3317 0.0574
vn 0.9462 -0.1562 0.2835
vn 0.9583 0.2454 0.1462
vn 0.9697 0.0384 0.2413
vn 0.9720 0.0924 0.2158
vn 0.6084 0.3989 0.6862
vn 0.4576 0.5474 0.7007
vn 0.9135 0.1586 0.3746
vn 0.8862 0.2927 0.3591
vn 0.9677 0.1393 0.2103
vn 0.8694 0.2970 0.3949
vn -0.9920 -0.0203 0.1242
vn 0.7520 -0.2415 0.6133
vn -0.9014 -0.0795 0.4256
vn -0.7419 -0.2538 0.6206
vn -0.8098 0.3218 0.4907
vn 0.2087 0.4439 0.8715
vn -0.3885 0.4221 0.8191
vn -0.6086 0.3531 0.7106
vn 0.9330 -0.0414 0.3574
vn 0.9627 -0.0743 0.2601
vn 0.9510 -0.0155 0.3087
vn 0.8576 -0.1320 0.4972
vn 0.8239 0.0828 0.5606
vn 0.8541 0.0847 0.5131
vn -0.9314 0.0186 0.3636
vn -0.7204 0.3500 0.5988
vn 0.9212 -0.0762 0.3816
vn -0.9799 0.1030 0.1708
vn 0.7964 0.0165 0.6045
vn 0.7638 0.0369 0.6444
vn 0.8866 0.1168 0.4475
vn 0.7726 0.0231 0.6345
vn 0.9686 -0.2024 -0.1443
vn 0.9984 -0.0043 -0.0557
vn 0.9949 -0.0415 -0.0916
vn 0.9882 -0.1143 -0.1016
vn 0.7714 -0.5468 -0.3256
vn 0.8198 -0.5388 -0.1939
vn 0.5477 -0.7368 -0.3963
vn -0.8350 -0.4515 -0.3145
vn -0.9886 -0.1335 -0.0701
vn -0.9161 -0.3259 -0.2336
vn 0.2571 -0.7536 -0.6049
vn -0.6772 -0.6277 -0.3839
vn 0.9748 0.1993 0.0997
vn 0.8277 0.5091 0.2361
vn 0.8693 0.4202 0.2602
vn -0.7552 0.5809 0.3037
vn -0.3076 0.8475 0.4327
vn 0.5557 0.6916 0.4613
vn -0.9983 0.0173 0.0551
vn -0.9704 0.2084 0.1218
vn -0.9963 0.0607 0.0606
vn -0.9879 0.1250 0.0916
vn -0.8706 0.2746 -0.4083
vn 0.9852 0.1695 0.0241
vn 0.8452 0.4482 -0.2912
vn -0.9687 0.0791 -0.2355
vn -0.9340 0.1309 -0.3325
vn -0.9086 0.2054 -0.3636
vn -0.9642 0.0874 -0.2502
vn 0.9826 -0.0216 0.1844
vn 0.9870 0.0196 0.1595
vn 0.9914 0.0484 0.1215
vn -0.9840 0.0191 -0.1769
vn -0.9873 -0.0137 -0.1580
vn -0.9881 -0.0277 -0.1515
vn 0.9683 -0.0951 0.2310
vn -0.9903 -0.1186 -0.0724
vn 0.8882 -0.3203 0.3294
vn -0.5530 -0.7464 0.3703
vn 0.9481 -0.1658 0.2715
vn 0.9542 -0.1421 0.2634
vn 0.9402 -0.1694 0.2955
vn -0.5885 -0.3379 -0.7345
vn 0.5786 -0.4517 -0.6791
vn 0.1106 -0.5045 -0.8563
vn -0.9558 -0.0126 -0.2936
vn -0.8913 -0.0903 -0.4443
vn -0.9857 0.1066 -0.1303
vn -0.9853 0.1537 -0.0743
vn -0.9781 0.2067 0.0256
vn 0.9854 -0.0963 0.1406
vn 0.9868 -0.1574 0.0384
vn 0.9839 -0.1765 0.0276
vn 0.9616 -0.0098 0.2744
vn -0.8678 0.3956 0.3008
vn 0.5914 0.3852 0.7085
vn -0.0875 0.5711 0.8162
vn 0.8943 0.1012 0.4359
vn -0.9794 0.0464 -0.1964
vn 0.9784 -0.0511 0.2005
vn 0.9081 -0.3450 -0.2372
vn -0.9261 0.3141 0.2092
vn 0.9929 0.0990 0.0655
vn -0.9927 -0.1086 -0.0531
usemtl None
s off
f 5/1/1 6/2/1 8/3/1 7/4/1
f 11/5/2 12/6/2 14/7/2 13/8/2
f 17/9/3 18/10/3 16/11/3 15/12/3
f 11/5/4 15/12/4 16/11/4 12/6/4
f 11/5/5 13/8/5 17/9/5 15/12/5
f 19/13/6 20/14/6 22/15/6 21/16/6
f 25/17/7 26/18/7 24/19/7 23/20/7
f 19/21/8 23/20/8 24/19/8 20/22/8
f 19/13/9 21/16/9 25/23/9 23/24/9
f 1/25/10 13/8/10 14/7/10 2/26/10
f 3/27/11 4/28/11 22/29/11 20/30/11
f 8/3/12 30/31/12 29/32/12 7/4/12
f 28/33/13 30/31/13 8/3/13 6/2/13
f 9/34/14 20/22/14 24/19/14 10/35/14
f 1/36/15 2/37/15 6/2/15 5/1/15
f 3/38/16 5/1/16 7/4/16 4/39/16
f 9/40/17 10/41/17 17/9/17 13/8/17
f 9/40/18 13/8/18 27/42/18 20/30/18
f 24/19/19 31/43/19 17/44/19 10/35/19
f 3/27/20 20/30/20 27/42/20 5/45/20
f 1/25/21 5/45/21 27/42/21 13/8/21
f 14/46/22 28/33/22 6/2/22 2/37/22
f 35/47/23 36/48/23 38/49/23 37/50/23
f 33/51/24 37/50/24 38/49/24 34/52/24
f 35/47/25 37/50/25 33/51/25 32/53/25
f 40/54/26 41/55/26 43/56/26 42/57/26
f 44/58/27 45/59/27 43/56/27 41/55/27
f 46/60/28 47/61/28 49/62/28 48/63/28
f 33/64/29 34/65/29 41/55/29 40/54/29
f 38/66/30 44/58/30 41/55/30 34/65/30
f 44/58/31 46/60/31 48/63/31 45/59/31
f 38/66/32 39/67/32 46/60/32 44/58/32
f 52/68/33 53/69/33 55/70/33 54/71/33
f 55/70/34 59/72/34 58/73/34 54/71/34
f 52/74/35 54/75/35 58/76/35 56/77/35
f 60/78/36 61/79/36 63/80/36 62/81/36
f 68/82/37 70/83/37 69/84/37 67/85/37
f 55/70/38 65/86/38 66/87/38 59/72/38
f 62/81/39 63/80/39 68/82/39 67/85/39
f 64/88/40 70/83/40 68/82/40 63/80/40
f 53/69/41 60/78/41 62/81/41 55/70/41
f 67/85/42 69/84/42 66/87/42 65/86/42
f 55/70/43 62/81/43 67/85/43 65/86/43
f 51/89/44 60/78/44 53/69/44 50/90/44
f 74/91/45 75/92/45 77/93/45 76/94/45
f 72/95/46 75/92/46 74/91/46 71/96/46
f 74/91/47 76/94/47 73/97/47 71/96/47
f 76/94/48 77/93/48 81/98/48 80/99/48
f 75/92/49 78/100/49 79/101/49 77/93/49
f 88/102/50 89/103/50 87/104/50 86/105/50
f 88/102/51 91/106/51 92/107/51 89/103/51
f 87/104/52 89/103/52 92/107/52 90/108/52
f 86/105/53 87/104/53 83/109/53 82/110/53
f 85/111/54 88/102/54 86/105/54 84/112/54
f 95/113/55 96/114/55 94/115/55 93/116/55
f 95/113/56 97/117/56 98/118/56 96/114/56
f 104/119/57 105/120/57 103/121/57 102/122/57
f 112/123/58 113/124/58 111/125/58 110/126/58
f 106/127/59 110/128/59 111/129/59 107/130/59
f 111/129/60 113/131/60 109/132/60 107/130/60
f 102/122/61 103/121/61 98/118/61 97/117/61
f 95/113/62 101/133/62 102/122/62 97/117/62
f 100/134/63 110/126/63 106/135/63 99/136/63
f 96/114/64 98/118/64 100/134/64 99/136/64
f 105/120/65 112/123/65 110/126/65 103/121/65
f 103/121/66 110/126/66 100/134/66 98/118/66
f 105/120/67 114/137/67 115/138/67 112/123/67
f 118/139/68 119/140/68 117/141/68 116/142/68
f 124/143/69 125/144/69 123/145/69 122/146/69
f 120/147/70 121/148/70 124/143/70 122/146/70
f 128/149/71 131/150/71 130/151/71 127/152/71
f 128/149/72 129/153/72 132/154/72 131/150/72
f 130/155/73 131/156/73 125/144/73 124/143/73
f 121/148/74 127/157/74 130/155/74 124/143/74
f 119/140/75 121/148/75 120/147/75 117/141/75
f 126/158/76 127/157/76 121/148/76 119/140/76
f 137/159/77 138/160/77 140/161/77 139/162/77
f 143/163/78 144/164/78 142/165/78 141/166/78
f 140/161/79 144/167/79 143/168/79 139/162/79
f 142/165/80 144/164/80 140/169/80 138/170/80
f 145/171/81 146/172/81 148/173/81 147/174/81
f 151/175/82 152/176/82 150/177/82 149/178/82
f 148/179/83 152/176/83 151/175/83 147/180/83
f 150/177/84 152/176/84 148/179/84 146/181/84
f 157/182/85 158/183/85 156/184/85 155/185/85
f 134/186/86 155/185/86 156/184/86 135/187/86
f 134/186/87 136/188/87 157/182/87 155/185/87
f 159/189/88 160/190/88 143/191/88 141/192/88
f 150/193/89 162/194/89 161/195/89 149/196/89
f 161/195/90 162/194/90 158/183/90 157/182/90
f 143/168/91 154/197/91 153/198/91 139/162/91
f 153/198/92 154/197/92 150/199/92 146/172/92
f 158/183/93 160/190/93 159/189/93 156/184/93
f 133/200/94 139/162/94 153/198/94 146/172/94
f 162/194/95 163/201/95 160/190/95 158/183/95
f 154/202/96 163/203/96 162/204/96 150/205/96
f 136/188/97 149/196/97 161/195/97 157/182/97
f 160/206/98 163/203/98 154/202/98 143/207/98
f 17/44/99 82/110/99 83/109/99 18/208/99
f 24/19/100 26/18/100 85/111/100 84/112/100
f 24/19/101 84/112/101 86/105/101 31/43/101
f 17/44/102 31/43/102 86/105/102 82/110/102
f 35/209/103 93/116/103 94/115/103 36/210/103
f 35/209/104 37/211/104 95/113/104 93/116/104
f 94/212/105 96/213/105 38/49/105 36/48/105
f 46/214/106 106/127/106 107/130/106 47/215/106
f 49/62/107 109/216/107 108/217/107 48/63/107
f 107/218/108 109/216/108 49/62/108 47/61/108
f 38/49/109 96/213/109 99/219/109 39/220/109
f 99/221/110 106/127/110 46/214/110 39/222/110
f 56/223/111 116/142/111 117/141/111 57/224/111
f 59/225/112 119/226/112 118/227/112 58/76/112
f 56/77/113 58/76/113 118/227/113 116/228/113
f 70/229/114 128/149/114 127/152/114 69/230/114
f 69/230/115 127/152/115 126/231/115 66/232/115
f 59/225/116 66/233/116 126/234/116 119/226/116
f 137/159/117 139/162/117 79/101/117 78/100/117
f 81/98/118 146/172/118 145/171/118 80/99/118
f 79/101/119 139/162/119 133/200/119 77/93/119
f 133/200/120 146/172/120 81/98/120 77/93/120
f 21/235/121 22/236/121 53/69/121 52/68/121
f 56/223/122 57/224/122 26/18/122 25/17/122
f 21/16/123 52/74/123 56/77/123 25/23/123
f 29/32/124 30/31/124 61/79/124 60/78/124
f 4/39/125 7/4/125 51/89/125 50/90/125
f 4/39/126 50/90/126 53/69/126 22/236/126
f 29/32/127 60/78/127 51/89/127 7/4/127
f 122/146/128 123/145/128 92/107/128 91/106/128
f 88/102/129 120/147/129 122/146/129 91/106/129
f 117/141/130 120/147/130 88/102/130 85/111/130
f 42/57/131 43/56/131 72/95/131 71/96/131
f 45/59/132 75/92/132 72/95/132 43/56/132
f 45/59/133 48/63/133 78/100/133 75/92/133
f 134/186/134 135/187/134 105/120/134 104/119/134
f 108/217/135 109/216/135 138/160/135 137/159/135
f 141/192/136 142/237/136 113/124/136 112/123/136
f 113/131/137 142/165/137 138/170/137 109/132/137
f 156/184/138 159/189/138 115/138/138 114/137/138
f 105/120/139 135/187/139 156/184/139 114/137/139
f 115/138/140 159/189/140 141/192/140 112/123/140
f 12/6/141 32/53/141 33/51/141 14/7/141
f 18/10/142 37/50/142 35/47/142 16/11/142
f 12/6/143 16/11/143 35/47/143 32/53/143
f 28/33/144 40/54/144 42/57/144 30/31/144
f 14/46/145 33/64/145 40/54/145 28/33/145
f 61/79/146 71/96/146 73/97/146 63/80/146
f 73/97/147 76/94/147 64/88/147 63/80/147
f 64/88/148 76/94/148 80/99/148 70/83/148
f 92/107/149 104/119/149 102/122/149 90/108/149
f 87/104/150 90/108/150 102/122/150 101/133/150
f 87/104/151 101/133/151 95/113/151 83/109/151
f 125/144/152 136/188/152 134/186/152 123/145/152
f 128/238/153 145/171/153 147/174/153 129/239/153
f 132/154/154 151/175/154 149/178/154 131/150/154
f 147/180/155 151/175/155 132/154/155 129/153/155
f 131/156/156 149/196/156 136/188/156 125/144/156
f 30/31/157 42/57/157 71/96/157 61/79/157
f 123/145/158 134/186/158 104/119/158 92/107/158
f 18/208/159 83/109/159 95/113/159 37/211/159
f 80/99/160 145/171/160 128/238/160 70/83/160
f 26/18/161 57/224/161 117/141/161 85/111/161
f 108/217/162 137/159/162 78/100/162 48/63/162
