# Blender v2.90.0 OBJ File: 'piedras3.blend'
# www.blender.org
mtllib modeloPiedras6.mtl
v -0.209735 0.008219 0.103880
v -0.551790 0.317881 0.095685
v -0.608315 0.501173 0.113862
v -0.334194 0.197949 0.130027
v -0.359842 0.501173 0.208497
v -0.609161 0.823255 0.119313
v -0.552917 1.007264 0.102954
v -0.339442 0.828276 0.160871
v -0.433202 1.007264 0.102954
v -0.249155 -0.016761 -0.071416
v -0.258040 -0.028367 -0.393497
v -0.221581 -0.007256 -0.580672
v -0.903221 0.584875 -0.136198
v -0.903221 0.584875 -0.336391
v -1.168292 0.936961 -0.229843
v -1.168292 0.990023 -0.229843
v -1.168292 0.936961 -0.313395
v -1.168292 0.990023 -0.313395
v -1.007950 0.827062 -0.131088
v -1.004004 1.035375 -0.177940
v -1.022056 0.801078 -0.432254
v -1.021721 1.050326 -0.409852
v -0.926171 0.879915 -0.619773
v -0.926171 1.026241 -0.619773
v -0.604451 0.278190 -0.071416
v -0.767972 0.486978 -0.045869
v -0.587832 0.287390 -0.393497
v -0.766158 0.486978 -0.423650
v -0.410196 0.117149 -0.071416
v -0.419080 0.126349 -0.393497
v -0.770202 0.823255 0.053334
v -0.668936 1.068682 -0.061579
v -0.840408 0.665195 -0.551113
v -0.681923 1.128872 -0.393497
v -0.232100 0.901673 -0.071416
v -0.393141 1.042995 -0.071416
v -0.243359 0.879997 -0.393497
v -0.404400 1.050630 -0.393497
v -0.529632 0.330148 -0.565025
v -0.606048 0.501173 -0.635622
v -0.341301 0.205309 -0.633017
v -0.359842 0.501173 -0.742464
v -0.712598 0.792835 -0.690260
v -0.681923 1.040615 -0.650972
v -0.348449 0.810935 -0.680087
v -0.448214 1.017443 -0.617881
v 0.075281 -0.712001 0.810517
v 0.361652 -1.002595 0.807368
v 0.266303 -0.806478 0.887396
v 0.074884 -0.465071 0.816064
v 0.106751 -0.280799 0.766760
v 0.418855 -0.403383 1.065439
v 0.418855 -0.251653 1.065439
v 0.300625 -0.492474 0.991864
v 0.303420 -0.158865 0.886150
v 0.081873 -0.709498 0.572747
v 0.116069 -0.651404 0.390060
v 0.340881 -1.021690 0.572747
v 0.179840 -0.870539 0.572747
v 0.377736 -0.991336 0.250665
v 0.214306 -0.770120 0.269886
v 0.051911 -0.465071 0.572747
v 0.088333 -0.161259 0.554291
v 0.096609 -0.446951 0.269886
v -0.038874 -0.116681 0.227010
v 0.305853 -0.037449 0.566996
v 0.150435 -0.542232 0.175339
v 0.395238 -0.042225 0.250665
v 0.606402 -1.008928 0.831725
v 0.638151 -0.754944 1.003998
v 0.784503 -0.974771 0.790789
v 0.786697 -0.787152 0.856566
v 0.628178 -0.477537 1.061611
v 0.551802 -0.184227 1.063047
v 0.665908 -0.525114 0.974481
v 0.556754 -0.116801 0.923344
v 0.773902 -0.591163 0.894335
v 0.633774 -1.022938 0.555639
v 0.759413 -0.813440 0.451692
v 0.555025 -0.991336 0.250665
v 0.712685 -0.813440 0.282873
v 0.784503 -0.974771 0.651595
v 0.782846 -0.813440 0.580524
v 0.704962 -0.484257 0.565424
v 0.522200 -0.126904 0.584301
v 0.651398 -0.465071 0.250665
v 0.507427 -0.203265 0.250665
v 0.776055 -0.604408 0.667902
v 0.402706 0.034519 0.790819
v 0.111257 0.209670 0.431278
v 0.012246 0.233301 0.253921
v -0.070871 0.468965 0.229749
v 0.279771 0.115968 0.548969
v 0.234197 0.153178 0.250665
v -0.174242 0.724263 0.168783
v 0.492866 0.030402 0.857082
v 0.457519 0.034519 0.699365
v 0.410793 -0.962123 0.047075
v 0.340449 -0.807429 -0.064738
v 0.341202 -0.727212 -0.393497
v 0.108755 -0.324427 -0.071416
v -0.052286 -0.177801 -0.071416
v 0.105265 -0.325806 -0.386299
v -0.023567 -0.212332 -0.386299
v 0.179107 -0.485467 -0.071416
v 0.364567 -0.076678 -0.071416
v 0.168785 -0.454639 -0.386299
v 0.306671 -0.143192 -0.386299
v 0.366562 -0.673437 -0.596995
v 0.103222 -0.350585 -0.703480
v -0.000065 -0.175969 -0.718137
v 0.114330 -0.349042 -0.889505
v 0.094118 -0.173976 -0.888635
v 0.259208 -0.429307 -0.695516
v 0.278755 -0.203081 -0.723332
v 0.197164 -0.349042 -0.889505
v 0.184451 -0.173976 -0.888635
v 0.492280 -0.962123 0.047075
v 0.570318 -0.807429 -0.064738
v 0.522667 -0.727212 -0.393497
v 0.611493 -0.465071 -0.071416
v 0.490487 -0.237719 -0.071416
v 0.548800 -0.465071 -0.393497
v 0.471495 -0.264023 -0.393497
v 0.477016 -0.673437 -0.596995
v 0.476777 -0.465071 -0.615072
v 0.455594 -0.285239 -0.592793
v 0.077340 0.274413 -0.071416
v -0.053527 0.501173 -0.071416
v 0.071438 0.263554 -0.393497
v -0.067571 0.501173 -0.393497
v 0.203527 0.113372 -0.071416
v 0.191478 0.102514 -0.393497
v -0.168627 0.740632 -0.071416
v -0.176769 0.718956 -0.393497
v -0.020002 0.165296 -0.722054
v -0.132145 0.501173 -0.661380
v 0.083626 0.036774 -0.883761
v 0.178909 0.077878 -0.715579
v 0.151348 0.036774 -0.883761
v -0.185098 0.695362 -0.602818
vt 0.992216 0.259454
vt 0.981903 0.324736
vt 0.926590 0.276374
vt 0.965598 0.219691
vt 0.905135 0.166792
vt 0.863542 0.222239
vt 0.845290 0.169378
vt 0.862822 0.145983
vt 0.840491 0.716094
vt 0.845290 0.726652
vt 0.827796 0.737566
vt 0.822996 0.727008
vt 0.975345 0.008765
vt 0.969752 0.066732
vt 0.931382 0.029070
vt 0.965388 0.000000
vt 0.117799 0.823135
vt 0.151947 0.807005
vt 0.151947 0.874345
vt 0.117859 0.837456
vt 0.775070 0.696888
vt 0.839441 0.660924
vt 0.268951 0.635886
vt 0.222255 0.601917
vt 0.261430 0.579014
vt 0.278679 0.589798
vt 0.772631 0.492572
vt 0.808885 0.551586
vt 0.729652 0.600704
vt 0.704804 0.534360
vt 0.677834 0.480844
vt 0.743786 0.435811
vt 0.423184 0.500243
vt 0.435671 0.558805
vt 0.359709 0.573606
vt 0.348280 0.522104
vt 0.223230 0.794366
vt 0.157584 0.750209
vt 0.184135 0.685331
vt 0.254331 0.730604
vt 0.109188 0.822681
vt 0.062447 0.784040
vt 0.099482 0.716086
vt 0.117799 0.772965
vt 0.048144 0.952610
vt 0.005815 0.910405
vt 0.016097 0.849695
vt 0.089302 0.903472
vt 0.808768 0.600075
vt 0.766851 0.626225
vt 0.930545 0.129656
vt 0.872841 0.099039
vt 0.097214 0.988061
vt 0.117799 0.956092
vt 0.674783 0.610845
vt 0.668479 0.557869
vt 0.629108 0.517946
vt 0.802279 0.743515
vt 0.749124 0.753986
vt 0.735889 0.724870
vt 0.491772 0.479113
vt 0.488614 0.543121
vt 0.117799 0.710516
vt 0.135529 0.651152
vt 0.724540 0.662263
vt 0.697555 0.689574
vt 1.000000 0.126765
vt 0.996063 0.177122
vt 0.169628 0.597189
vt 0.391323 0.734849
vt 0.400874 0.774101
vt 0.369054 0.813842
vt 0.354595 0.722387
vt 0.294510 0.751464
vt 0.309815 0.799757
vt 0.720446 0.029491
vt 0.745955 0.080058
vt 0.689091 0.135216
vt 0.653045 0.072914
vt 0.767722 0.124568
vt 0.732212 0.155640
vt 0.792032 0.177016
vt 0.812969 0.235246
vt 0.757826 0.303053
vt 0.726972 0.214496
vt 0.378847 0.579014
vt 0.417600 0.579532
vt 0.434348 0.624635
vt 0.413517 0.634211
vt 0.017155 0.139069
vt 0.048129 0.246415
vt 0.013253 0.238459
vt 0.000000 0.159451
vt 0.540773 0.911099
vt 0.501950 0.903239
vt 0.494524 0.856907
vt 0.529056 0.826687
vt 0.491772 0.821866
vt 0.494710 0.798443
vt 0.188989 0.114966
vt 0.204096 0.193636
vt 0.128329 0.228927
vt 0.112659 0.121990
vt 0.323486 0.596136
vt 0.320169 0.648404
vt 0.432674 0.703662
vt 0.434348 0.783919
vt 0.248765 0.839151
vt 0.265166 0.807005
vt 0.265166 0.905268
vt 0.245934 0.894808
vt 0.704563 0.753986
vt 0.740382 0.755682
vt 0.740382 0.825633
vt 0.697414 0.791299
vt 0.599236 0.829738
vt 0.583033 0.915693
vt 0.214317 0.244590
vt 0.144101 0.272975
vt 0.769771 0.000000
vt 0.811274 0.040702
vt 0.817764 0.093850
vt 0.071696 0.000000
vt 0.094188 0.035096
vt 0.030498 0.056318
vt 0.039178 0.007719
vt 0.541500 0.753986
vt 0.497771 0.761240
vt 0.841289 0.142310
vt 0.845290 0.181362
vt 0.654843 0.753986
vt 0.654843 0.844531
vt 0.599236 0.840051
vt 0.602791 0.778108
vt 0.029252 0.107005
vt 0.081587 0.091024
vt 0.278679 0.687839
vt 0.694602 0.201038
vt 0.003054 0.088360
vt 0.166481 0.026199
vt 0.125206 0.030493
vt 0.432121 0.693535
vt 0.599236 0.767010
vt 0.679834 0.860874
vt 0.654843 0.783821
vt 0.697414 0.753986
vt 0.697414 0.809152
vt 0.196068 0.908385
vt 0.188695 0.865822
vt 0.209088 0.807005
vt 0.209088 0.881998
vt 0.665700 0.281914
vt 0.690799 0.331580
vt 0.619635 0.362187
vt 0.599901 0.323215
vt 0.583580 0.289497
vt 0.645963 0.240918
vt 0.531399 0.359977
vt 0.551716 0.409779
vt 0.509274 0.420463
vt 0.491772 0.383170
vt 0.477387 0.128944
vt 0.484003 0.172537
vt 0.440630 0.164467
vt 0.426733 0.113641
vt 0.771493 0.810933
vt 0.793067 0.812702
vt 0.793067 0.860078
vt 0.773284 0.858455
vt 0.245934 0.809029
vt 0.245934 0.859085
vt 0.226129 0.860344
vt 0.209088 0.807005
vt 0.343507 0.090371
vt 0.353802 0.147177
vt 0.278761 0.169314
vt 0.265800 0.101433
vt 0.188695 0.807005
vt 0.188695 0.869001
vt 0.151947 0.849124
vt 0.151947 0.827147
vt 0.434348 0.725666
vt 0.434921 0.635155
vt 0.478377 0.635155
vt 0.489396 0.725666
vt 0.362958 0.194554
vt 0.289522 0.221757
vt 0.439016 0.725666
vt 0.482468 0.747660
vt 0.487144 0.796292
vt 0.434348 0.786606
vt 0.514480 0.323424
vt 0.398101 0.085894
vt 0.400220 0.132740
vt 0.606381 0.155452
vt 0.544745 0.214262
vt 0.335072 0.030067
vt 0.253500 0.023809
vt 0.505136 0.248318
vt 0.386347 0.036684
vt 0.487144 0.852469
vt 0.460696 0.852323
vt 0.441272 0.579014
vt 0.467723 0.579014
vt 0.388564 0.317632
vt 0.402603 0.389938
vt 0.326807 0.406276
vt 0.313480 0.337467
vt 0.302709 0.284996
vt 0.378035 0.265826
vt 0.315421 0.864211
vt 0.278679 0.849427
vt 0.280524 0.831440
vt 0.315421 0.813842
vt 0.465366 0.285662
vt 0.467722 0.382086
vt 0.452883 0.243395
vt 0.414755 0.454235
vt 0.339974 0.476433
vt 0.463131 0.437847
vt 0.921104 0.397236
vt 0.889725 0.339990
vt 0.858646 0.272384
vt 0.719836 0.388674
vt 0.652003 0.429567
vt 0.612041 0.453579
vt 0.017588 0.747684
vt 0.043657 0.656744
vt 0.000000 0.798298
vt 0.610630 0.101114
vt 0.550931 0.967934
vt 0.528174 1.000000
vt 0.570355 0.970045
vt 0.807337 0.471941
vt 0.831876 0.513231
vt 0.787685 0.415904
vt 0.319257 0.579014
vt 0.295582 0.528947
vt 0.265486 0.807005
vt 0.278679 0.778657
vt 0.255969 0.417100
vt 0.238549 0.352666
vt 0.227697 0.309118
vt 0.283489 0.486419
vt 0.975687 0.503069
vt 0.906131 0.435716
vt 0.995007 0.442747
vt 0.154875 0.311755
vt 0.920247 0.526216
vt 0.895778 0.494230
vt 0.934557 0.573198
vt 0.886366 0.552472
vt 0.109816 0.281202
vt 0.071433 0.285123
vt 0.888533 0.618950
vt 0.872102 0.576461
vt 0.771493 0.753986
vt 0.771493 0.807951
vt 0.741472 0.840386
vt 0.740382 0.777097
vt 0.583228 0.480732
vt 0.530127 0.463096
vt 0.491772 0.227157
vt 0.772678 0.753986
vt 0.788851 0.755312
vt 0.755901 0.365731
vt 1.000000 0.378154
vt 0.087766 0.579014
vt 0.105710 0.650497
vn -0.3151 -0.2358 0.9193
vn -0.1066 0.1887 0.9762
vn -0.2542 0.0703 0.9646
vn -1.0000 0.0000 0.0000
vn -0.3872 0.1683 0.9065
vn -0.5811 0.0608 -0.8116
vn -0.6207 -0.7804 0.0755
vn -0.3131 0.9477 0.0625
vn -0.7663 -0.6418 -0.0286
vn -0.6634 -0.7477 -0.0293
vn 0.6952 0.7177 -0.0399
vn 0.1854 0.9781 0.0946
vn -0.4387 -0.3996 -0.8049
vn 0.0722 0.2279 -0.9710
vn -0.5838 -0.8119 -0.0018
vn -0.4437 0.3905 0.8067
vn -0.1886 0.9720 0.1398
vn -0.1984 0.1125 -0.9736
vn -0.6653 -0.5838 -0.4654
vn -0.6173 -0.6750 -0.4041
vn -0.9020 0.0252 -0.4310
vn 0.7490 0.5729 -0.3329
vn 0.2040 0.9447 -0.2567
vn -0.9015 -0.4302 0.0477
vn -0.1561 -0.0120 -0.9877
vn -0.5744 -0.4784 -0.6642
vn -0.6175 -0.2487 0.7462
vn -0.6976 -0.5798 -0.4210
vn -0.5792 -0.4489 -0.6804
vn -0.1581 0.9522 -0.2612
vn -0.7250 0.1506 0.6721
vn -0.5914 0.2673 0.7607
vn -0.7414 -0.6348 -0.2175
vn -0.8388 -0.4713 -0.2725
vn -0.9831 -0.1425 0.1146
vn 0.4480 -0.4507 0.7722
vn 0.9435 0.2637 0.2006
vn 0.7614 -0.6016 -0.2418
vn 0.7429 -0.4723 -0.4744
vn 0.8748 0.4657 -0.1333
vn -0.1581 -0.4997 0.8516
vn 0.0182 -0.0001 0.9998
vn -0.1106 -0.7291 0.6754
vn -0.2771 0.8167 0.5062
vn -0.0062 -0.9952 -0.0979
vn 0.6070 0.7941 -0.0294
vn -0.7538 -0.6118 0.2398
vn -0.6780 -0.7134 0.1775
vn 1.0000 -0.0017 -0.0092
vn 0.2350 -0.9708 0.0482
vn -0.9794 0.1550 0.1296
vn -0.5582 0.7493 0.3564
vn 0.9339 0.3569 0.0203
vn 0.7140 0.6959 0.0765
vn -0.5416 -0.1301 0.8305
vn -0.9709 -0.1557 -0.1822
vn -0.8938 -0.3255 -0.3085
vn 0.6550 -0.0376 0.7547
vn 0.9632 0.1877 -0.1923
vn 0.9384 0.2094 -0.2747
vn -0.9975 -0.0620 0.0336
vn 0.9987 0.0506 -0.0074
vn -0.1294 -0.1209 0.9842
vn -0.0149 -0.9978 0.0645
vn 0.4085 0.9127 -0.0074
vn 0.2087 0.9700 0.1251
vn -0.6678 -0.7442 0.0157
vn -0.9079 -0.4193 0.0003
vn -0.9044 -0.3301 -0.2704
vn 0.9112 -0.0430 -0.4096
vn 0.0000 0.0050 -1.0000
vn -0.3041 -0.9389 -0.1614
vn 0.8997 0.4165 -0.1311
vn 0.0000 -0.5858 -0.8105
vn 0.0000 -0.9715 -0.2370
vn 0.6816 0.7078 -0.1854
vn 0.4693 -0.0101 -0.8830
vn -0.7772 -0.6281 -0.0369
vn -0.6820 -0.7249 -0.0969
vn 0.9435 0.2563 -0.2100
vn -0.8698 -0.4882 -0.0713
vn 0.9775 -0.1108 -0.1794
vn -0.8281 -0.4949 -0.2634
vn 0.9597 -0.0633 -0.2737
vn 0.2134 -0.1959 -0.9571
vn 0.0000 -0.9668 -0.2555
vn 0.5478 0.8195 -0.1687
vn 0.8641 0.5022 -0.0352
vn 0.7937 0.6068 -0.0426
vn 0.2963 0.8755 -0.3818
vn 0.8639 0.4094 -0.2934
vn 0.5996 0.7635 -0.2401
vn 0.8969 0.4400 -0.0457
vn 0.9110 0.3810 -0.1580
vn -0.2198 -0.1416 0.9652
vn -0.0085 0.1821 0.9832
vn -0.6246 -0.7801 0.0371
vn -0.6319 -0.7590 -0.1571
vn 0.9259 0.3739 -0.0531
vn -0.0203 -0.0811 -0.9965
vn 0.4251 0.2442 -0.8716
vn 0.7750 0.5652 -0.2828
vn -0.8005 -0.5541 -0.2284
vn 0.7380 -0.5979 -0.3128
vn -0.8462 -0.5306 -0.0493
vn -0.9098 -0.3753 -0.1776
vn 0.8746 0.4738 -0.1025
vn -0.8797 -0.4059 -0.2478
vn 0.9648 0.0133 -0.2625
vn 0.0000 -0.9899 -0.1420
vn 0.7981 0.5900 -0.1221
vn -0.7092 -0.4578 0.5362
vn -0.5340 -0.7307 0.4253
vn -0.5241 0.4189 0.7415
vn 0.6765 0.6122 0.4095
vn 0.0690 0.9630 0.2606
vn -0.5666 -0.1319 0.8134
vn 0.8915 0.4212 0.1666
vn 0.5694 0.8215 0.0319
vn 0.9087 0.4106 0.0754
vn -0.6672 -0.7446 0.0212
vn -0.7248 -0.6019 -0.3352
vn -0.8948 0.1480 0.4211
vn 0.8759 0.4744 0.0875
vn -0.3274 0.2436 0.9130
vn -0.9088 0.2899 0.3000
vn 0.9074 0.3989 -0.1325
vn -0.3034 0.4340 0.8483
vn 0.4974 0.3833 -0.7783
vn 0.8354 0.5270 -0.1558
vn -0.8660 -0.0469 -0.4978
vn 0.9056 0.2536 -0.3400
vn 0.0000 0.0231 -0.9997
vn 0.9207 0.3760 -0.1048
vn -0.6769 -0.6281 0.3837
vn 0.7592 0.6344 -0.1454
vn -0.4469 -0.1475 0.8824
vn -0.4419 -0.2003 -0.8744
vn -0.6427 -0.7379 0.2058
vn 0.7199 0.6298 0.2918
usemtl None
s off
f 2/1/1 4/2/1 5/3/1 3/4/1
f 6/5/2 8/6/2 9/7/2 7/8/2
f 3/4/3 5/3/3 8/6/3 6/5/3
f 15/9/4 16/10/4 18/11/4 17/12/4
f 15/13/5 19/14/5 20/15/5 16/16/5
f 18/17/6 22/18/6 21/19/6 17/20/6
f 15/9/7 17/12/7 21/21/7 19/22/7
f 20/23/8 22/24/8 18/25/8 16/26/8
f 25/27/9 26/28/9 28/29/9 27/30/9
f 25/27/10 27/30/10 30/31/10 29/32/10
f 37/33/11 38/34/11 36/35/11 35/36/11
f 36/37/12 38/38/12 34/39/12 32/40/12
f 40/41/13 42/42/13 41/43/13 39/44/13
f 44/45/14 46/46/14 45/47/14 43/48/14
f 13/49/15 14/50/15 28/29/15 26/28/15
f 19/14/16 31/51/16 32/52/16 20/15/16
f 32/40/17 34/39/17 22/24/17 20/23/17
f 24/53/18 44/45/18 43/48/18 23/54/18
f 27/30/19 28/29/19 40/55/19 39/56/19
f 27/30/20 39/56/20 41/57/20 30/31/20
f 21/21/21 22/58/21 24/59/21 23/60/21
f 45/61/22 46/62/22 38/34/22 37/33/22
f 38/38/23 46/63/23 44/64/23 34/39/23
f 13/49/24 19/22/24 21/21/24 14/50/24
f 43/48/25 45/47/25 42/42/25 40/41/25
f 28/29/26 33/65/26 43/66/26 40/55/26
f 13/67/27 26/68/27 31/51/27 19/14/27
f 21/21/28 33/65/28 28/29/28 14/50/28
f 21/21/29 23/60/29 43/66/29 33/65/29
f 34/39/30 44/64/30 24/69/30 22/24/30
f 52/70/31 53/71/31 55/72/31 54/73/31
f 50/74/32 54/73/32 55/72/32 51/75/32
f 58/76/33 59/77/33 61/78/33 60/79/33
f 56/80/34 57/81/34 61/78/34 59/77/34
f 62/82/35 63/83/35 65/84/35 64/85/35
f 69/86/36 71/87/36 72/88/36 70/89/36
f 75/90/37 76/91/37 74/92/37 73/93/37
f 80/94/38 81/95/38 79/96/38 78/97/38
f 79/96/39 83/98/39 82/99/39 78/97/39
f 86/100/40 87/101/40 85/102/40 84/103/40
f 48/104/41 69/86/41 70/89/41 49/105/41
f 52/70/42 73/106/42 74/107/42 53/71/42
f 52/108/43 54/109/43 75/110/43 73/111/43
f 74/112/44 76/113/44 55/114/44 53/115/44
f 58/116/45 60/117/45 80/94/45 78/97/45
f 85/102/46 87/101/46 68/118/46 66/119/46
f 48/120/47 49/121/47 59/77/47 58/76/47
f 47/122/48 56/80/48 59/77/48 49/121/48
f 82/123/49 83/124/49 72/125/49 71/126/49
f 69/127/50 78/97/50 82/99/50 71/128/50
f 50/129/51 51/130/51 63/83/51 62/82/51
f 55/131/52 66/132/52 63/133/52 51/134/52
f 84/103/53 85/102/53 76/91/53 75/90/53
f 77/135/54 88/136/54 84/103/54 75/90/54
f 47/137/55 49/105/55 54/73/55 50/74/55
f 56/80/56 62/82/56 64/85/56 57/81/56
f 64/85/57 67/138/57 61/78/57 57/81/57
f 70/139/58 72/125/58 77/135/58 75/90/58
f 81/140/59 86/100/59 84/103/59 79/141/59
f 84/103/60 88/136/60 83/124/60 79/141/60
f 47/122/61 50/129/61 62/82/61 56/80/61
f 83/124/62 88/136/62 77/135/62 72/125/62
f 49/105/63 70/89/63 75/142/63 54/73/63
f 48/143/64 58/116/64 78/97/64 69/127/64
f 93/144/65 94/145/65 91/146/65 90/147/65
f 96/148/66 97/149/66 93/150/66 89/151/66
f 101/152/67 102/153/67 104/154/67 103/155/67
f 101/152/68 103/155/68 107/156/68 105/157/68
f 110/158/69 111/159/69 113/160/69 112/161/69
f 116/162/70 117/163/70 115/164/70 114/165/70
f 113/166/71 117/167/71 116/168/71 112/169/71
f 110/170/72 112/171/72 116/172/72 114/173/72
f 123/174/73 124/175/73 122/176/73 121/177/73
f 99/178/74 119/179/74 118/180/74 98/181/74
f 99/182/75 100/183/75 120/184/75 119/185/75
f 122/176/76 124/175/76 108/186/76 106/187/76
f 115/188/77 127/189/77 126/190/77 114/191/77
f 103/155/78 104/154/78 111/159/78 110/158/78
f 103/155/79 110/158/79 114/192/79 107/156/79
f 126/193/80 127/194/80 124/175/80 123/174/80
f 99/195/81 105/157/81 107/156/81 100/196/81
f 120/197/82 123/174/82 121/177/82 119/198/82
f 100/196/83 107/156/83 114/192/83 109/199/83
f 125/200/84 126/193/84 123/174/84 120/197/84
f 114/191/85 126/190/85 125/201/85 109/202/85
f 100/183/86 109/203/86 125/204/86 120/184/86
f 124/175/87 127/194/87 115/164/87 108/186/87
f 130/205/88 131/206/88 129/207/88 128/208/88
f 132/209/89 133/210/89 130/205/89 128/208/89
f 139/211/90 140/212/90 138/213/90 136/214/90
f 136/215/91 137/216/91 131/206/91 130/205/91
f 133/210/92 139/217/92 136/215/92 130/205/92
f 131/206/93 135/218/93 134/219/93 129/207/93
f 137/216/94 141/220/94 135/218/94 131/206/94
f 4/2/95 91/221/95 92/222/95 5/3/95
f 5/3/96 92/222/96 95/223/96 8/6/96
f 10/224/97 11/225/97 104/154/97 102/153/97
f 11/225/98 12/226/98 111/159/98 104/154/98
f 134/219/99 135/218/99 37/33/99 35/36/99
f 42/42/100 137/227/100 136/228/100 41/43/100
f 45/47/101 141/229/101 137/227/101 42/42/101
f 135/218/102 141/220/102 45/61/102 37/33/102
f 60/79/103 61/78/103 99/195/103 98/230/103
f 118/231/104 119/232/104 81/95/104 80/94/104
f 64/85/105 65/84/105 102/153/105 101/152/105
f 64/85/106 101/152/106 105/157/106 67/138/106
f 121/177/107 122/176/107 87/101/107 86/100/107
f 61/78/108 67/138/108 105/157/108 99/195/108
f 119/198/109 121/177/109 86/100/109 81/140/109
f 60/117/110 98/233/110 118/231/110 80/94/110
f 87/101/111 122/176/111 106/187/111 68/118/111
f 2/234/112 3/235/112 26/28/112 25/27/112
f 2/234/113 25/27/113 29/32/113 4/236/113
f 6/5/114 7/8/114 32/52/114 31/51/114
f 35/36/115 36/35/115 9/237/115 8/238/115
f 9/239/116 36/37/116 32/40/116 7/240/116
f 3/4/117 6/5/117 31/51/117 26/68/117
f 128/208/118 129/207/118 92/241/118 91/242/118
f 94/243/119 132/209/119 128/208/119 91/242/119
f 129/207/120 134/219/120 95/244/120 92/241/120
f 10/224/121 29/32/121 30/31/121 11/225/121
f 11/225/122 30/31/122 41/57/122 12/226/122
f 63/245/123 90/246/123 91/221/123 65/247/123
f 68/118/124 94/243/124 93/248/124 66/119/124
f 63/245/125 66/249/125 93/250/125 90/246/125
f 55/251/126 89/252/126 93/250/126 66/249/126
f 85/102/127 97/253/127 96/254/127 76/91/127
f 55/251/128 76/255/128 96/256/128 89/252/128
f 93/257/129 97/258/129 85/259/129 66/260/129
f 108/186/130 133/210/130 132/209/130 106/187/130
f 111/159/131 136/261/131 138/262/131 113/160/131
f 117/163/132 140/263/132 139/217/132 115/164/132
f 138/264/133 140/265/133 117/167/133 113/166/133
f 115/164/134 139/217/134 133/210/134 108/186/134
f 1/266/135 4/236/135 29/32/135 10/224/135
f 106/187/136 132/209/136 94/243/136 68/118/136
f 1/267/137 65/247/137 91/221/137 4/2/137
f 41/43/138 136/228/138 111/268/138 12/269/138
f 1/266/139 10/224/139 102/153/139 65/84/139
f 95/244/140 134/219/140 35/36/140 8/238/140
