# Blender v2.90.0 OBJ File: ''
# www.blender.org
mtllib test1.mtl
o Esfera_Esfera.001
v -0.702963 -0.061797 0.953045
v -0.690073 -0.706654 0.086093
v -0.782411 -0.313077 0.413666
v -0.026420 -0.733308 0.985298
v -0.284763 -0.313077 1.105621
v -0.284763 -0.757982 0.413666
v -0.630207 -0.665584 0.689880
v -0.702963 0.313982 0.953045
v -0.891765 0.636934 0.516152
v -0.872329 1.281273 0.256904
v -0.273765 0.636934 1.139880
v -0.008090 1.287663 1.042397
v -0.611877 0.917769 0.860691
v -0.273765 1.415754 0.516152
v -0.690073 -0.706654 -0.256804
v -0.784929 -0.312237 -0.516617
v -0.707159 -0.060396 -0.987299
v -0.298081 -0.808460 -0.516617
v -0.652404 -0.664183 -0.860591
v -0.048617 -0.817438 -0.998666
v -0.298081 -0.312237 -1.141635
v -0.978524 0.668522 -0.453496
v -0.851057 1.288165 -0.453496
v -0.727179 0.668522 -1.007143
v -0.710599 1.183856 -0.959782
v -0.219438 1.462162 -0.453496
v -0.219438 0.668522 -1.257141
v -0.219438 1.218899 -1.032265
v 0.452195 -0.733308 0.985298
v 0.726950 -0.282547 1.125319
v 0.726950 -0.852878 0.499094
v 1.055982 -0.614700 0.832260
v 1.212980 -0.010913 0.985875
v 1.226665 -0.864816 0.228473
v 1.337950 -0.282547 0.499094
v 0.686243 0.668522 1.267828
v 0.686243 1.326694 1.052666
v 0.686243 1.625980 0.452184
v 1.289956 0.668522 1.010274
v 1.266351 1.228837 0.964507
v 1.536583 0.668522 0.452184
v 1.353686 1.377923 0.452184
v 0.748842 -0.903356 -0.512459
v 1.065650 -0.281540 -0.847336
v 0.488681 -0.817438 -0.998666
v 0.703377 -0.281540 -1.093058
v 1.226665 -0.864816 -0.249873
v 1.293612 -0.281540 -0.485064
v 0.942311 0.668522 -0.812405
v 0.664857 1.401325 -0.496315
v 0.489471 0.668522 -1.156335
v 0.348707 1.188917 -1.020795
v 1.385710 0.668522 -0.359565
v 1.297953 1.355969 -0.222966
vt 0.480054 0.637582
vt 0.431360 0.664039
vt 0.380509 0.596998
vt 0.435791 0.553069
vt 0.368066 0.506722
vt 0.347666 0.562920
vt 0.783419 0.349735
vt 0.743112 0.429260
vt 0.685353 0.388686
vt 0.739221 0.330129
vt 0.561509 0.232817
vt 0.666848 0.194731
vt 0.687968 0.238760
vt 0.606677 0.285954
vt 0.561630 0.330129
vt 0.665838 0.330129
vt 0.509176 0.298032
vt 0.428975 0.413939
vt 0.367487 0.366680
vt 0.415520 0.330129
vt 0.466053 0.341277
vt 0.341578 0.424692
vt 0.365977 0.455763
vt 0.742087 0.568328
vt 0.781216 0.639804
vt 0.736625 0.666006
vt 0.683818 0.620308
vt 0.901640 0.558877
vt 1.000000 0.561040
vt 0.981246 0.637778
vt 0.898526 0.643838
vt 0.336482 0.304648
vt 0.257465 0.307208
vt 0.260480 0.223145
vt 0.341578 0.227301
vt 0.097128 0.430308
vt 0.000508 0.428690
vt 0.013160 0.355402
vt 0.096388 0.335876
vt 0.599732 0.560543
vt 0.649681 0.613278
vt 0.592463 0.664039
vt 0.556491 0.635933
vt 0.445259 0.664039
vt 0.495442 0.665125
vt 0.450205 0.751213
vt 0.394901 0.698961
vt 0.341578 0.746191
vt 0.368916 0.789004
vt 0.454936 0.894378
vt 0.448399 1.000000
vt 0.365938 0.974809
vt 0.362137 0.890790
vt 0.567866 0.088277
vt 0.569253 0.000000
vt 0.659497 0.004652
vt 0.674194 0.090857
vt 0.315593 0.657445
vt 0.235663 0.668786
vt 0.241854 0.568637
vt 0.333192 0.570777
vt 0.687968 0.180050
vt 0.715606 0.101656
vt 0.746038 0.116820
vt 0.746038 0.225082
vt 0.727135 0.006724
vt 0.764054 0.000000
vt 0.764054 0.085884
vt 0.687968 0.101656
vt 0.146159 0.220903
vt 0.166146 0.300380
vt 0.113044 0.334933
vt 0.072452 0.221685
vt 0.010706 0.327602
vt 0.000000 0.223369
vt 0.341578 0.195168
vt 0.342322 0.123585
vt 0.415072 0.082009
vt 0.408616 0.233436
vt 0.251850 0.425264
vt 0.333192 0.466809
vt 0.277254 0.077770
vt 0.115845 0.078450
vt 0.152569 0.000000
vt 0.239030 0.002304
vt 0.551862 0.339426
vt 0.598044 0.409215
vt 0.086391 0.562637
vt 0.000000 0.513824
vt 0.678558 0.478369
vt 0.678122 0.529636
vt 0.572137 0.667570
vt 0.607396 0.756263
vt 0.675207 0.447297
vt 0.678122 0.518385
vt 0.896965 0.414604
vt 1.000000 0.454630
vt 0.210120 0.334933
vt 0.583056 0.898079
vt 0.556024 1.000000
vt 0.127363 0.658334
vt 0.843810 0.350374
vt 0.448682 0.297520
vt 0.341578 0.118397
vt 0.459798 0.010779
vt 0.056952 0.078843
vt 0.649693 0.899073
vt 0.662412 0.757436
vn -0.3379 -0.7917 0.5090
vn -0.6620 -0.7405 0.1160
vn -0.7657 -0.3323 0.5507
vn -0.5256 0.5318 0.6640
vn -0.6381 0.5063 0.5801
vn -0.6945 0.2100 0.6881
vn -0.3227 -0.7413 -0.5885
vn -0.7107 -0.6973 -0.0934
vn -0.7735 -0.1966 -0.6025
vn -0.9254 0.1323 -0.3551
vn -0.3059 0.2401 -0.9213
vn -0.1933 0.9268 -0.3219
vn 0.3012 -0.7050 0.6421
vn 0.6114 -0.6550 0.4441
vn 0.6726 -0.3419 0.6563
vn 0.9351 0.1634 0.3145
vn 0.2900 0.2058 0.9347
vn 0.2721 0.8850 0.3779
vn 0.6263 -0.5071 -0.5921
vn 0.5924 -0.4909 -0.6388
vn 0.6157 0.4408 -0.6531
vn 0.5286 0.3782 -0.7600
vn -0.0068 -0.2863 0.9581
vn -0.0706 -0.9885 0.1337
vn -0.0912 0.2488 0.9642
vn -0.1260 0.9173 0.3777
vn 0.0352 -0.2210 -0.9746
vn -0.0594 -0.9951 -0.0784
vn 0.0904 0.3284 -0.9402
vn 0.0489 0.9181 -0.3932
vn -0.9729 -0.2313 0.0018
vn -0.1918 -0.9806 0.0409
vn 0.9882 -0.1502 -0.0301
vn 0.0275 -0.9990 0.0343
vn -0.9914 0.1237 0.0415
vn -0.2471 0.9688 0.0196
vn 0.9698 0.2014 -0.1377
vn 0.2486 0.9558 -0.1570
vn -0.9613 -0.0992 0.2569
vn -0.3702 -0.0209 0.9287
vn -0.9383 -0.1089 -0.3283
vn -0.4160 -0.0576 -0.9075
vn 0.9185 -0.1502 0.3657
vn 0.3630 -0.1029 0.9261
vn 0.5837 0.0916 -0.8068
vn 0.7702 0.0662 -0.6344
vn -0.9864 -0.1585 0.0436
vn 0.9835 -0.1460 -0.1070
vn -0.0714 -0.0935 0.9931
vn 0.0882 -0.0857 -0.9924
vn -0.0939 -0.9943 0.0513
vn -0.0858 0.9919 -0.0936
usemtl None
s off
f 4/1/1 5/2/1 7/3/1 6/4/1
f 2/5/2 6/4/2 7/3/2 3/6/2
f 1/7/3 3/8/3 7/9/3 5/10/3
f 11/11/4 12/12/4 14/13/4 13/14/4
f 9/15/5 13/14/5 14/13/5 10/16/5
f 11/11/6 13/14/6 9/15/6 8/17/6
f 18/18/7 19/19/7 21/20/7 20/21/7
f 16/22/8 19/19/8 18/18/8 15/23/8
f 16/24/9 17/25/9 21/26/9 19/27/9
f 22/28/10 23/29/10 25/30/10 24/31/10
f 25/32/11 28/33/11 27/34/11 24/35/11
f 26/36/12 28/37/12 25/38/12 23/39/12
f 31/40/13 32/41/13 30/42/13 29/43/13
f 31/44/14 34/45/14 35/46/14 32/47/14
f 30/48/15 32/47/15 35/46/15 33/49/15
f 41/50/16 42/51/16 40/52/16 39/53/16
f 36/54/17 39/55/17 40/56/17 37/57/17
f 40/58/18 42/59/18 38/60/18 37/61/18
f 45/62/19 46/63/19 44/64/19 43/65/19
f 44/66/20 48/67/20 47/68/20 43/69/20
f 51/70/21 52/71/21 50/72/21 49/73/21
f 50/72/22 54/74/22 53/75/22 49/73/22
f 4/76/23 29/77/23 30/78/23 5/79/23
f 4/1/24 6/4/24 31/40/24 29/43/24
f 11/11/25 36/54/25 37/57/25 12/12/25
f 37/61/26 38/60/26 14/80/26 12/81/26
f 21/82/27 46/83/27 45/84/27 20/85/27
f 18/18/28 20/21/28 45/86/28 43/87/28
f 28/33/29 52/71/29 51/70/29 27/34/29
f 50/88/30 52/89/30 28/37/30 26/36/30
f 2/90/31 3/8/31 16/24/31 15/91/31
f 2/5/32 15/23/32 18/18/32 6/4/32
f 47/92/33 48/93/33 35/46/33 34/45/33
f 31/40/34 43/87/34 47/94/34 34/95/34
f 9/96/35 10/97/35 23/29/35 22/28/35
f 14/80/36 26/36/36 23/39/36 10/98/36
f 53/99/37 54/100/37 42/51/37 41/50/37
f 42/59/38 54/101/38 50/88/38 38/60/38
f 1/7/39 8/102/39 9/96/39 3/8/39
f 1/103/40 5/79/40 11/11/40 8/17/40
f 16/24/41 22/28/41 24/31/41 17/25/41
f 24/35/42 27/34/42 21/82/42 17/104/42
f 35/46/43 41/50/43 39/53/43 33/49/43
f 30/78/44 33/105/44 39/55/44 36/54/44
f 46/83/45 51/70/45 49/73/45 44/106/45
f 49/107/46 53/99/46 48/93/46 44/108/46
f 3/8/47 9/96/47 22/28/47 16/24/47
f 48/93/48 53/99/48 41/50/48 35/46/48
f 5/79/49 30/78/49 36/54/49 11/11/49
f 27/34/50 51/70/50 46/83/50 21/82/50
f 6/4/51 18/18/51 43/87/51 31/40/51
f 38/60/52 50/88/52 26/36/52 14/80/52
